<svg width="129" height="33" viewBox="0 0 129 33" fill="none" xmlns="http://www.w3.org/2000/svg">
<g style="mix-blend-mode:difference">
<path d="M0.743652 13.2019C0.743652 11.4241 1.02601 9.845 1.59071 8.4646C2.17633 7.0633 2.98156 5.8816 4.0064 4.9195C5.05215 3.95741 6.29659 3.22539 7.73973 2.72343C9.18287 2.22147 10.762 1.97049 12.477 1.97049C14.2129 1.97049 15.8025 2.22147 17.2456 2.72343C18.6888 3.22539 19.9227 3.95741 20.9476 4.9195C21.9933 5.8816 22.7986 7.0633 23.3633 8.4646C23.9489 9.845 24.2417 11.4241 24.2417 13.2019C24.2417 14.9796 23.9489 16.5692 23.3633 17.9705C22.7986 19.3509 21.9933 20.5221 20.9476 21.4842C19.9227 22.4463 18.6888 23.1679 17.2456 23.6489C15.8025 24.109 14.2129 24.3391 12.477 24.3391C10.762 24.3391 9.18287 24.109 7.73973 23.6489C6.29659 23.1679 5.05215 22.4463 4.0064 21.4842C2.98156 20.5221 2.17633 19.3509 1.59071 17.9705C1.02601 16.5692 0.743652 14.9796 0.743652 13.2019ZM21.1672 13.2019C21.1672 11.4659 20.9476 9.97049 20.5084 8.71558C20.0691 7.43977 19.4522 6.39401 18.6574 5.57833C17.8835 4.74173 16.9633 4.12473 15.8966 3.72735C14.8508 3.32996 13.711 3.13127 12.477 3.13127C11.2639 3.13127 10.124 3.32996 9.05738 3.72735C8.01163 4.12473 7.09136 4.74173 6.29659 5.57833C5.52274 6.39401 4.9162 7.43977 4.47699 8.71558C4.03777 9.97049 3.81816 11.4659 3.81816 13.2019C3.81816 14.9378 4.03777 16.4437 4.47699 17.7195C4.9162 18.9744 5.52274 20.0202 6.29659 20.8568C7.09136 21.6724 8.01163 22.279 9.05738 22.6764C10.124 23.0738 11.2639 23.2724 12.477 23.2724C13.711 23.2724 14.8508 23.0738 15.8966 22.6764C16.9633 22.279 17.8835 21.6724 18.6574 20.8568C19.4522 20.0202 20.0691 18.9744 20.5084 17.7195C20.9476 16.4437 21.1672 14.9378 21.1672 13.2019Z" fill="white"/>
<path d="M35.1282 11.6019C35.0236 11.4764 34.8145 11.3613 34.5008 11.2568C34.208 11.1522 33.9047 11.0999 33.591 11.0999C33.089 11.0999 32.6393 11.2149 32.2419 11.445C31.8446 11.6751 31.5099 11.9888 31.238 12.3862C30.9661 12.7626 30.757 13.2228 30.6106 13.7666C30.4642 14.2894 30.391 14.8541 30.391 15.4607V18.9117C30.391 20.313 30.391 21.3901 30.391 22.143C30.4119 22.8751 30.4537 23.4711 30.5164 23.9313C30.0981 23.8894 29.6798 23.8685 29.2615 23.8685C28.8014 23.8685 28.3622 23.8894 27.9439 23.9313C28.0066 23.2202 28.038 22.2581 28.038 21.045C28.0589 19.811 28.0694 18.3051 28.0694 16.5273V15.5234C28.0694 14.7077 28.0589 13.7666 28.038 12.6999C28.038 11.6332 28.0066 10.4097 27.9439 9.02931C28.174 9.07114 28.3936 9.11297 28.6027 9.1548C28.8119 9.17571 29.0315 9.18617 29.2615 9.18617C29.4498 9.18617 29.6485 9.17571 29.8576 9.1548C30.0668 9.11297 30.2864 9.07114 30.5164 9.02931C30.4328 9.78225 30.3805 10.3783 30.3596 10.8175C30.3596 11.2568 30.3596 11.6751 30.3596 12.0724L30.4223 12.1038C31.6563 9.845 33.0367 8.71558 34.5635 8.71558C34.7517 8.71558 34.9086 8.72604 35.0341 8.74696C35.1805 8.76787 35.3583 8.82016 35.5674 8.90382C35.4628 9.1548 35.4001 9.54173 35.3792 10.0646C35.3583 10.5666 35.3478 11.0267 35.3478 11.445L35.1282 11.6019Z" fill="white"/>
<path d="M38.7677 3.57049C38.7677 3.13127 38.9245 2.7548 39.2383 2.44107C39.552 2.12735 39.9285 1.97049 40.3677 1.97049C40.8069 1.97049 41.1834 2.12735 41.4971 2.44107C41.8108 2.7548 41.9677 3.13127 41.9677 3.57049C41.9677 4.0097 41.8108 4.38617 41.4971 4.6999C41.1834 5.01362 40.8069 5.17049 40.3677 5.17049C39.9285 5.17049 39.552 5.01362 39.2383 4.6999C38.9245 4.38617 38.7677 4.0097 38.7677 3.57049ZM39.2069 14.896C39.2069 13.9548 39.186 12.9718 39.1441 11.947C39.1232 10.9012 39.0605 9.92866 38.9559 9.02931C39.5415 9.13388 40.0121 9.18617 40.3677 9.18617C40.7232 9.18617 41.1938 9.13388 41.7794 9.02931C41.6749 9.92866 41.6017 10.9012 41.5598 11.947C41.5389 12.9718 41.5285 13.9548 41.5285 14.896V18.1587C41.5285 19.0999 41.5389 20.0934 41.5598 21.1391C41.6017 22.1639 41.6749 23.0947 41.7794 23.9313C41.2984 23.8894 40.8278 23.8685 40.3677 23.8685C39.9075 23.8685 39.437 23.8894 38.9559 23.9313C39.0605 23.0947 39.1232 22.1639 39.1441 21.1391C39.186 20.0934 39.2069 19.0999 39.2069 18.1587V14.896Z" fill="white"/>
<path d="M57.4444 27.2568C57.4444 26.0019 57.0784 25.1234 56.3463 24.6215C55.6143 24.1195 54.4012 23.8685 52.7071 23.8685C51.1385 23.8685 49.9254 24.1195 49.0679 24.6215C48.2104 25.1443 47.7816 26.0751 47.7816 27.4136C47.7816 28.1247 47.8967 28.7313 48.1267 29.2332C48.3777 29.7352 48.7019 30.143 49.0993 30.4568C49.5176 30.7705 50.0091 31.0006 50.5738 31.147C51.1385 31.2934 51.745 31.3666 52.3934 31.3666C53.0209 31.3666 53.6378 31.2829 54.2444 31.1156C54.8509 30.9483 55.3843 30.6973 55.8444 30.3626C56.3254 30.028 56.7124 29.5992 57.0052 29.0764C57.298 28.5744 57.4444 27.9679 57.4444 27.2568ZM55.7503 13.6724C55.7503 12.3548 55.4365 11.3509 54.8091 10.6607C54.1816 9.97049 53.3555 9.62539 52.3307 9.62539C51.2012 9.62539 50.3228 10.0123 49.6954 10.7862C49.0679 11.5391 48.7542 12.5535 48.7542 13.8293C48.7542 15.147 49.0365 16.1927 49.6012 16.9666C50.1869 17.7195 51.0862 18.096 52.2993 18.096C52.9058 18.096 53.4182 17.9809 53.8365 17.7509C54.2758 17.4999 54.6313 17.1757 54.9032 16.7783C55.196 16.36 55.4052 15.8894 55.5307 15.3666C55.6771 14.8228 55.7503 14.2581 55.7503 13.6724ZM46.3071 13.8293C46.3071 12.9509 46.464 12.1979 46.7777 11.5705C47.0914 10.9221 47.5202 10.3888 48.064 9.97049C48.6287 9.55218 49.2666 9.23846 49.9777 9.02931C50.7097 8.82016 51.4836 8.71558 52.2993 8.71558C52.6967 8.71558 53.0731 8.72604 53.4287 8.74696C53.8052 8.76787 54.2758 8.79924 54.8405 8.84107C55.3215 8.8829 55.7503 8.91428 56.1267 8.93519C56.5032 8.95611 56.8065 8.96656 57.0365 8.96656C58.2078 8.96656 59.0548 8.91428 59.5777 8.8097C59.5568 8.91428 59.5359 9.02931 59.515 9.1548C59.515 9.25937 59.515 9.36395 59.515 9.46852C59.515 9.5731 59.515 9.68813 59.515 9.81362C59.5359 9.9182 59.5568 10.0228 59.5777 10.1273C58.9712 10.0855 58.3751 10.0437 57.7895 10.0019C57.2248 9.93911 56.6601 9.89728 56.0954 9.87637L56.0326 9.93911C56.681 10.2947 57.2039 10.8489 57.6012 11.6019C57.9986 12.3339 58.1973 13.0973 58.1973 13.8921C58.1973 15.4607 57.664 16.6947 56.5973 17.594C55.5516 18.4724 54.1398 18.9117 52.362 18.9117C52.0692 18.9117 51.7764 18.9012 51.4836 18.8803C51.2117 18.8594 50.9294 18.8489 50.6365 18.8489C50.2601 18.8489 49.9045 18.9849 49.5699 19.2568C49.2562 19.5287 49.0993 19.8738 49.0993 20.2921C49.0993 20.8358 49.2248 21.2332 49.4758 21.4842C49.7477 21.7352 50.2392 21.8711 50.9503 21.8921C51.5359 21.913 52.1111 21.9339 52.6758 21.9548C53.2405 21.9548 53.8156 21.9653 54.4013 21.9862C55.3633 22.0071 56.179 22.1221 56.8483 22.3313C57.5385 22.5404 58.0928 22.8228 58.5111 23.1783C58.9503 23.5339 59.264 23.9417 59.4522 24.4019C59.6614 24.862 59.766 25.364 59.766 25.9077C59.766 26.6398 59.6195 27.3823 59.3267 28.1352C59.0548 28.8881 58.6156 29.5679 58.0091 30.1744C57.4235 30.7809 56.6601 31.2829 55.7189 31.6803C54.7777 32.0777 53.6483 32.2764 52.3307 32.2764C50.3019 32.2764 48.7019 31.8685 47.5307 31.0528C46.3594 30.2581 45.7738 29.16 45.7738 27.7587C45.7738 27.2149 45.8679 26.713 46.0562 26.2528C46.2653 25.7927 46.5267 25.3849 46.8405 25.0293C47.1542 24.6738 47.5097 24.3914 47.9071 24.1823C48.3045 23.9731 48.7124 23.8162 49.1307 23.7117V23.6489C48.4823 23.4607 47.9908 23.147 47.6562 22.7077C47.3215 22.2685 47.1542 21.7456 47.1542 21.1391C47.1542 20.7836 47.2169 20.4594 47.3424 20.1666C47.4888 19.8738 47.6666 19.6123 47.8758 19.3822C48.0849 19.1522 48.3254 18.9639 48.5973 18.8175C48.8692 18.6711 49.1307 18.577 49.3816 18.5352V18.4724C48.4195 18.0541 47.6666 17.4685 47.1228 16.7156C46.579 15.9417 46.3071 14.9796 46.3071 13.8293Z" fill="white"/>
<path d="M63.1856 3.57049C63.1856 3.13127 63.3424 2.7548 63.6561 2.44107C63.9699 2.12735 64.3463 1.97049 64.7856 1.97049C65.2248 1.97049 65.6012 2.12735 65.915 2.44107C66.2287 2.7548 66.3856 3.13127 66.3856 3.57049C66.3856 4.0097 66.2287 4.38617 65.915 4.6999C65.6012 5.01362 65.2248 5.17049 64.7856 5.17049C64.3463 5.17049 63.9699 5.01362 63.6561 4.6999C63.3424 4.38617 63.1856 4.0097 63.1856 3.57049ZM63.6248 14.896C63.6248 13.9548 63.6039 12.9718 63.562 11.947C63.5411 10.9012 63.4784 9.92866 63.3738 9.02931C63.9594 9.13388 64.43 9.18617 64.7856 9.18617C65.1411 9.18617 65.6117 9.13388 66.1973 9.02931C66.0928 9.92866 66.0196 10.9012 65.9777 11.947C65.9568 12.9718 65.9464 13.9548 65.9464 14.896V18.1587C65.9464 19.0999 65.9568 20.0934 65.9777 21.1391C66.0196 22.1639 66.0928 23.0947 66.1973 23.9313C65.7163 23.8894 65.2457 23.8685 64.7856 23.8685C64.3254 23.8685 63.8548 23.8894 63.3738 23.9313C63.4784 23.0947 63.5411 22.1639 63.562 21.1391C63.6039 20.0934 63.6248 19.0999 63.6248 18.1587V14.896Z" fill="white"/>
<path d="M81.7682 15.1156C81.7682 13.547 81.4649 12.3653 80.8584 11.5705C80.2518 10.7548 79.4152 10.347 78.3485 10.347C76.8845 10.347 75.8074 10.7966 75.1172 11.696C74.4479 12.5953 74.1133 13.8607 74.1133 15.4921V18.1587C74.1133 19.0999 74.1237 20.0934 74.1446 21.1391C74.1865 22.1639 74.2597 23.0947 74.3642 23.9313C73.8832 23.8894 73.4126 23.8685 72.9525 23.8685C72.4923 23.8685 72.0218 23.8894 71.5407 23.9313C71.6453 23.0947 71.708 22.1639 71.7289 21.1391C71.7708 20.0934 71.7917 19.0999 71.7917 18.1587V14.896C71.7917 13.9548 71.7708 12.9718 71.7289 11.947C71.708 10.9012 71.6453 9.92866 71.5407 9.02931C72.1263 9.13388 72.5969 9.18617 72.9525 9.18617C73.1198 9.18617 73.2976 9.17571 73.4858 9.1548C73.695 9.11297 73.9355 9.07114 74.2074 9.02931C74.1446 9.86591 74.1133 10.7025 74.1133 11.5391H74.176C74.7616 10.6398 75.4623 9.94957 76.278 9.46852C77.0937 8.96656 78.0662 8.71558 79.1956 8.71558C79.7812 8.71558 80.3669 8.79924 80.9525 8.96656C81.559 9.13388 82.1028 9.42669 82.5838 9.84499C83.0649 10.2424 83.4518 10.7966 83.7446 11.5077C84.0584 12.1979 84.2152 13.0868 84.2152 14.1744C84.2152 15.0738 84.1943 16.0045 84.1525 16.9666C84.1106 17.9077 84.0897 18.9117 84.0897 19.9783V22.0175C84.0897 22.3522 84.0897 22.6868 84.0897 23.0215C84.1106 23.3352 84.1316 23.6385 84.1525 23.9313C83.7342 23.8894 83.295 23.8685 82.8348 23.8685C82.3956 23.8685 81.9669 23.8894 81.5486 23.9313C81.5904 22.8437 81.6322 21.7247 81.674 20.5744C81.7368 19.4241 81.7682 18.2424 81.7682 17.0293V15.1156Z" fill="white"/>
<path d="M97.036 16.1195C96.6805 16.245 96.2622 16.3496 95.7812 16.4332C95.321 16.5169 94.8504 16.611 94.3694 16.7156C93.8883 16.7992 93.4073 16.9143 92.9262 17.0607C92.4661 17.2071 92.0478 17.4058 91.6713 17.6568C91.3158 17.9077 91.023 18.2215 90.7929 18.5979C90.5838 18.9744 90.4792 19.4555 90.4792 20.0411C90.4792 21.0241 90.7615 21.7666 91.3262 22.2685C91.891 22.7705 92.5184 23.0215 93.2086 23.0215C94.0034 23.0215 94.7249 22.8019 95.3733 22.3626C96.0426 21.9234 96.555 21.411 96.9106 20.8254L97.036 16.1195ZM89.287 10.5352C90.2282 9.82408 91.0962 9.34303 91.891 9.09205C92.6857 8.84107 93.5014 8.71558 94.338 8.71558C95.091 8.71558 95.7812 8.83062 96.4086 9.06068C97.036 9.26983 97.5694 9.58356 98.0086 10.0019C98.4478 10.3992 98.7929 10.8907 99.0439 11.4764C99.2949 12.0411 99.4204 12.6685 99.4204 13.3587C99.4204 14.5509 99.3995 15.743 99.3576 16.9352C99.3158 18.1064 99.2949 19.3509 99.2949 20.6685C99.2949 20.9195 99.2949 21.1914 99.2949 21.4842C99.3158 21.7561 99.3681 22.0071 99.4517 22.2372C99.5354 22.4463 99.6504 22.6241 99.7968 22.7705C99.9642 22.9169 100.205 22.9901 100.518 22.9901C100.623 22.9901 100.728 22.9901 100.832 22.9901C100.958 22.9692 101.073 22.9273 101.177 22.8646V23.5548C100.947 23.6594 100.654 23.743 100.299 23.8058C99.9642 23.8685 99.5877 23.8999 99.1694 23.8999C98.5001 23.8999 97.9877 23.7326 97.6321 23.3979C97.2766 23.0424 97.0674 22.5927 97.0047 22.0489C96.2517 22.8019 95.5093 23.3561 94.7772 23.7117C94.0452 24.0672 93.1459 24.245 92.0792 24.245C91.5563 24.245 91.0439 24.1718 90.5419 24.0254C90.04 23.879 89.5903 23.6385 89.1929 23.3038C88.8164 22.9692 88.5027 22.5718 88.2517 22.1117C88.0217 21.6306 87.9066 21.0868 87.9066 20.4803C87.9066 19.2254 88.2936 18.2528 89.0674 17.5626C89.8622 16.8724 90.9498 16.4123 92.3302 16.1823C93.4596 15.994 94.338 15.8372 94.9655 15.7117C95.6138 15.5653 96.0844 15.4188 96.3772 15.2724C96.691 15.126 96.8792 14.9587 96.9419 14.7705C97.0047 14.5613 97.036 14.2999 97.036 13.9862C97.036 13.4633 96.9733 12.9613 96.8478 12.4803C96.7223 11.9992 96.5236 11.5809 96.2517 11.2254C95.9798 10.8698 95.6243 10.5875 95.1851 10.3783C94.7459 10.1483 94.2125 10.0332 93.5851 10.0332C92.7485 10.0332 91.9642 10.2215 91.2321 10.5979C90.521 10.9744 89.9877 11.4973 89.6321 12.1666H89.287V10.5352Z" fill="white"/>
<path d="M105.475 9.31166C105.475 8.60055 105.465 7.82669 105.444 6.99009C105.444 6.15349 105.433 5.32735 105.413 4.51166C105.392 3.69598 105.36 2.92212 105.318 2.19009C105.297 1.43715 105.266 0.799242 105.224 0.276367C105.81 0.380942 106.28 0.43323 106.636 0.43323C106.992 0.43323 107.462 0.380942 108.048 0.276367C108.006 0.799242 107.964 1.43715 107.922 2.19009C107.901 2.92212 107.88 3.69598 107.86 4.51166C107.839 5.32735 107.818 6.15349 107.797 6.99009C107.797 7.82669 107.797 8.60055 107.797 9.31166V14.9901C107.797 15.7012 107.797 16.4751 107.797 17.3117C107.818 18.1483 107.839 18.9744 107.86 19.7901C107.88 20.6058 107.901 21.3796 107.922 22.1117C107.964 22.8437 108.006 23.4502 108.048 23.9313C107.567 23.8894 107.096 23.8685 106.636 23.8685C106.176 23.8685 105.705 23.8894 105.224 23.9313C105.266 23.4502 105.297 22.8437 105.318 22.1117C105.36 21.3796 105.392 20.6058 105.413 19.7901C105.433 18.9744 105.444 18.1483 105.444 17.3117C105.465 16.4751 105.475 15.7012 105.475 14.9901V9.31166Z" fill="white"/>
<path d="M119.298 4.35978H121.631C121.941 4.35978 122.237 4.4827 122.456 4.70149C122.675 4.92028 122.798 5.21703 122.798 5.52645V6.69312C122.798 7.18312 122.506 7.59728 122.075 7.77228L122.798 10.1931H121.631L120.931 7.85978H120.465V10.1931H119.298V4.35978ZM120.465 5.52645V6.69312H121.631V5.52645H120.465ZM121.048 1.44312C121.814 1.44312 122.572 1.594 123.28 1.88715C123.988 2.1803 124.631 2.60998 125.173 3.15166C125.714 3.69333 126.144 4.3364 126.437 5.04413C126.73 5.75186 126.881 6.5104 126.881 7.27645C126.881 8.82355 126.267 10.3073 125.173 11.4012C124.079 12.4952 122.595 13.1098 121.048 13.1098C120.282 13.1098 119.523 12.9589 118.816 12.6657C118.108 12.3726 117.465 11.9429 116.923 11.4012C115.829 10.3073 115.215 8.82355 115.215 7.27645C115.215 5.72935 115.829 4.24562 116.923 3.15166C118.017 2.0577 119.501 1.44312 121.048 1.44312ZM121.048 2.60978C119.81 2.60978 118.623 3.10145 117.748 3.97662C116.873 4.85179 116.381 6.03877 116.381 7.27645C116.381 9.84895 118.47 11.9431 121.048 11.9431C122.286 11.9431 123.473 11.4515 124.348 10.5763C125.223 9.70111 125.715 8.51413 125.715 7.27645C125.715 6.03877 125.223 4.85179 124.348 3.97662C123.473 3.10145 122.286 2.60978 121.048 2.60978Z" fill="white"/>
</g>
</svg>
