<svg width="693" height="623" viewBox="0 0 693 623" fill="none" xmlns="http://www.w3.org/2000/svg">
<path d="M518.095 589.318C518.197 588.633 518.504 587.7 519.018 586.521C519.524 585.422 520.247 584.179 521.187 582.792C522.12 581.487 523.226 580.074 524.505 578.554C525.784 577.034 527.24 575.591 528.872 574.225C532.358 571.308 535.986 569.098 539.755 567.596C543.56 566.137 547.393 565.518 551.254 565.739C555.07 565.996 558.815 567.065 562.487 568.943C566.152 570.903 569.554 573.758 572.692 577.509C575.83 581.26 578.022 585.09 579.267 588.999C580.505 592.989 580.892 596.904 580.428 600.743C579.92 604.619 578.587 608.36 576.428 611.967C574.269 615.573 571.358 618.908 567.696 621.973C564.784 624.409 561.877 626.316 558.978 627.692C556.071 629.149 553.34 630.233 550.785 630.945C550.621 630.032 550.207 628.954 549.541 627.71C548.876 626.466 548.314 625.436 547.855 624.619L548.142 624.155C549.026 624.315 550.142 624.394 551.49 624.391C552.839 624.389 554.3 624.253 555.876 623.985C557.452 623.717 559.068 623.227 560.724 622.517C562.418 621.851 564.058 620.853 565.647 619.524C568.25 617.345 570.327 614.896 571.876 612.174C573.381 609.49 574.233 606.564 574.433 603.396C574.626 600.309 574.06 597.032 572.734 593.565C571.446 590.142 569.269 586.599 566.205 582.936C563.141 579.274 560.019 576.484 556.84 574.568C553.699 572.695 550.573 571.56 547.463 571.161C544.347 570.843 541.334 571.187 538.427 572.195C535.475 573.239 532.697 574.851 530.093 577.029C528.505 578.358 527.215 579.775 526.223 581.28C525.187 582.821 524.34 584.319 523.679 585.771C523.012 587.305 522.495 588.75 522.13 590.106C521.757 591.543 521.465 592.763 521.253 593.765L520.767 593.722L518.095 589.318Z" fill="#DFAD77" fill-opacity="0.1"/>
<path d="M516.495 609.862C515.277 607.775 513.928 605.864 512.449 604.129C510.92 602.423 509.259 601.061 507.466 600.043C505.701 599.074 503.812 598.578 501.8 598.553C499.787 598.529 497.687 599.155 495.501 600.431C493.315 601.707 491.737 603.228 490.769 604.992C489.8 606.757 489.304 608.645 489.279 610.658C489.284 612.721 489.678 614.822 490.461 616.963C491.195 619.133 492.171 621.261 493.389 623.348C494.607 625.435 495.981 627.332 497.509 629.038C498.988 630.773 500.61 632.124 502.375 633.093C504.168 634.111 506.071 634.633 508.084 634.657C510.097 634.681 512.196 634.055 514.383 632.779C516.569 631.503 518.146 629.982 519.115 628.218C520.084 626.453 520.566 624.54 520.561 622.477C520.585 620.465 520.231 618.373 519.497 616.203C518.714 614.063 517.713 611.949 516.495 609.862ZM523.054 606.033C525.026 609.412 526.172 612.574 526.492 615.518C526.791 618.541 526.491 621.281 525.593 623.737C524.724 626.243 523.41 628.443 521.65 630.336C519.87 632.307 517.911 633.917 515.775 635.164C513.588 636.44 511.224 637.354 508.681 637.906C506.168 638.507 503.606 638.57 500.997 638.094C498.417 637.668 495.909 636.567 493.473 634.791C491.017 633.094 488.802 630.556 486.83 627.177C484.858 623.798 483.722 620.597 483.423 617.574C483.103 614.629 483.378 611.904 484.247 609.398C485.145 606.942 486.488 604.792 488.277 602.949C490.066 601.106 492.053 599.546 494.239 598.27C496.376 597.022 498.712 596.059 501.246 595.379C503.731 594.728 506.263 594.616 508.843 595.041C511.453 595.517 513.985 596.603 516.442 598.301C518.877 600.077 521.081 602.654 523.054 606.033Z" fill="#DFAD77" fill-opacity="0.1"/>
<path d="M453.699 644.814C455.276 648.83 457.24 651.552 459.592 652.977C461.965 654.456 464.517 654.66 467.249 653.587C470.998 652.116 473.304 649.882 474.167 646.885C474.977 643.909 474.562 640.333 472.922 636.155L470.242 629.327C469.296 626.917 468.271 624.383 467.166 621.727C466.029 619.144 464.906 616.835 463.797 614.797C465.071 614.421 466.297 614.002 467.475 613.539C468.653 613.077 469.837 612.55 471.027 611.959C471.6 614.207 472.375 616.653 473.352 619.298C474.296 622.018 475.241 624.583 476.187 626.993L479.466 635.348C480.412 637.758 481.454 640.254 482.591 642.836C483.696 645.493 484.834 647.921 486.006 650.118C484.401 650.439 483.144 650.778 482.233 651.136C481.805 651.304 481.36 651.509 480.899 651.752C480.406 652.07 479.832 652.418 479.177 652.799C478.497 650.594 477.737 648.42 476.896 646.277L476.735 646.341C476.139 649.232 475.039 651.704 473.434 653.755C471.85 655.861 469.612 657.481 466.72 658.616C465.22 659.205 463.636 659.579 461.969 659.739C460.247 659.921 458.56 659.717 456.908 659.13C455.277 658.596 453.729 657.565 452.264 656.039C450.767 654.587 449.472 652.468 448.379 649.683C447.475 647.381 446.593 644.976 445.733 642.471C444.894 640.018 443.939 637.427 442.866 634.695L440.817 629.474C440.48 628.617 440.144 627.76 439.808 626.903C439.439 626.121 439.08 625.365 438.732 624.636C439.846 624.323 440.991 623.935 442.17 623.472C443.294 623.031 444.371 622.546 445.4 622.019C446.386 624.846 447.404 627.753 448.453 630.741C449.449 633.75 450.556 636.807 451.775 639.913L453.699 644.814Z" fill="#DFAD77" fill-opacity="0.1"/>
<path d="M433.71 680.232C433.324 678.074 432.918 675.95 432.491 673.861C432.024 671.842 431.576 669.789 431.15 667.7C430.537 667.86 429.396 668.158 427.726 668.594C426.071 669.086 424.283 669.642 422.364 670.262C422.376 670.081 422.324 669.767 422.208 669.322L421.75 667.568C421.648 667.179 421.547 666.908 421.448 666.755C422.186 666.622 422.945 666.453 423.724 666.25C424.518 666.102 425.361 665.912 426.251 665.679L430.343 664.61C430.34 664.373 430.191 663.461 429.895 661.873C429.544 660.3 429.112 658.42 428.601 656.235C428.104 654.105 427.578 651.863 427.023 649.511C426.412 647.173 425.867 645.085 425.387 643.248C424.98 641.69 424.552 640.166 424.104 638.678C423.6 637.204 422.966 635.913 422.201 634.804C421.45 633.752 420.535 632.98 419.455 632.489C418.375 631.998 417 631.97 415.33 632.406C414.885 632.523 414.315 632.731 413.62 633.031C412.87 633.346 412.238 633.66 411.725 633.972L411.202 631.968C412.105 631.554 413.111 631.083 414.222 630.555C415.263 629.986 416.312 629.563 417.37 629.287C420.877 628.371 423.691 628.558 425.812 629.847C427.932 631.137 429.429 633.451 430.301 636.791C430.694 638.294 431.088 639.916 431.483 641.656C431.893 643.452 432.338 645.387 432.821 647.461C433.262 649.606 433.782 651.938 434.381 654.457C434.994 657.033 435.708 659.879 436.522 662.996L439.194 662.298C439.639 662.182 440.105 662.031 440.592 661.844C441.093 661.713 441.614 661.547 442.156 661.346C442.188 661.695 442.24 662.008 442.313 662.286C442.344 662.635 442.404 662.976 442.491 663.31C442.564 663.589 442.664 663.86 442.793 664.124C442.865 664.402 442.966 664.673 443.094 664.937C440.545 665.424 438.687 665.82 437.518 666.126C437.864 667.225 438.283 668.602 438.775 670.257C439.211 671.927 439.718 673.638 440.294 675.391L434.127 680.123L433.71 680.232Z" fill="#DFAD77" fill-opacity="0.1"/>
<path d="M388.19 657.378C389.105 656.891 390.201 656.435 391.475 656.011C392.693 655.595 393.934 655.147 395.2 654.666C396.474 654.241 397.736 653.732 398.985 653.137C400.177 652.55 401.233 651.839 402.155 651.002C403.019 650.174 403.688 649.201 404.16 648.082C404.575 646.973 404.662 645.621 404.423 644.028C404.021 641.354 402.949 639.45 401.208 638.315C399.466 637.181 397.657 636.755 395.779 637.037C393.617 637.362 391.744 638.254 390.16 639.714C388.519 641.183 387.334 642.786 386.607 644.525L388.19 657.378ZM411.553 669.4C409.283 671.719 407.119 673.383 405.06 674.391C403 675.398 400.833 676.073 398.557 676.415C396.509 676.723 394.584 676.693 392.783 676.323C390.991 676.011 389.411 675.376 388.046 674.417C386.688 673.516 385.548 672.32 384.626 670.829C383.713 669.396 383.115 667.74 382.832 665.863C382.345 662.62 381.914 659.368 381.541 656.108C381.175 652.905 380.723 649.511 380.185 645.926C380.082 645.244 379.971 644.504 379.851 643.707C379.683 642.976 379.438 642.315 379.116 641.723C378.803 641.189 378.418 640.752 377.96 640.414C377.445 640.084 376.76 639.983 375.907 640.111C375.622 640.154 375.338 640.197 375.053 640.24C374.721 640.348 374.425 640.509 374.166 640.722L373.884 638.844C374.467 638.466 375.229 638.119 376.171 637.803C377.055 637.495 378.067 637.256 379.205 637.085C381.025 636.811 382.488 637.057 383.592 637.822C384.704 638.643 385.457 639.781 385.85 641.235C387.591 638.879 389.384 637.067 391.23 635.801C393.076 634.534 395.45 633.683 398.351 633.247C399.774 633.033 401.197 633.022 402.623 633.215C404.048 633.408 405.37 633.879 406.588 634.627C407.749 635.383 408.765 636.336 409.635 637.485C410.458 638.699 410.993 640.132 411.241 641.782C411.755 645.195 411.1 647.999 409.277 650.193C407.397 652.396 404.627 654.092 400.965 655.283C397.97 656.256 395.645 657.042 393.989 657.64C392.285 658.304 391.065 658.894 390.328 659.412C389.535 659.939 389.091 660.471 388.997 661.009C388.912 661.603 388.934 662.327 389.062 663.181C389.276 664.603 389.652 665.943 390.19 667.2C390.728 668.458 391.439 669.514 392.324 670.37C393.21 671.226 394.292 671.849 395.573 672.239C396.861 672.685 398.359 672.78 400.066 672.523C402.342 672.181 404.399 671.348 406.236 670.025C408.017 668.71 409.254 667.069 409.947 665.103L410.886 664.962L411.553 669.4Z" fill="#DFAD77" fill-opacity="0.1"/>
<path d="M371.115 658.323C371.169 662.063 370.583 665.294 369.357 668.016C368.131 670.738 366.523 672.977 364.535 674.732C362.49 676.545 360.15 677.874 357.515 678.718C354.881 679.619 352.184 680.09 349.422 680.13C346.258 680.176 343.433 679.814 340.948 679.045C338.406 678.334 336.581 677.497 335.474 676.535C335.864 675.666 336.225 674.741 336.556 673.758C336.83 672.833 337.074 671.851 337.29 670.812L337.98 670.802C338.393 671.544 338.951 672.284 339.652 673.022C340.354 673.817 341.199 674.524 342.186 675.143C343.116 675.82 344.16 676.351 345.316 676.737C346.474 677.181 347.743 677.393 349.123 677.373C351.712 677.335 353.949 676.813 355.833 675.808C357.66 674.861 359.166 673.544 360.35 671.858C361.476 670.173 362.31 668.176 362.852 665.866C363.337 663.615 363.561 661.166 363.522 658.52C363.436 652.595 362.105 648.126 359.53 645.113C356.955 642.159 353.223 640.717 348.333 640.788C347.182 640.805 346.005 640.966 344.801 641.271C343.598 641.634 342.425 642.082 341.282 642.617C340.139 643.209 339.085 643.886 338.118 644.648C337.093 645.411 336.213 646.229 335.478 647.103L335.042 646.85C335.31 645.465 335.462 644.054 335.499 642.614C337.205 641.209 339.345 639.998 341.919 638.982C344.436 637.968 347.076 637.44 349.837 637.4C352.311 637.364 354.818 637.673 357.36 638.326C359.844 639.038 362.105 640.214 364.143 641.853C366.182 643.549 367.854 645.74 369.158 648.426C370.406 651.112 371.058 654.411 371.115 658.323Z" fill="#DFAD77" fill-opacity="0.1"/>
<path d="M314.776 689.076C315.154 686.916 315.501 684.781 315.817 682.673C316.069 680.616 316.354 678.534 316.669 676.425C316.039 676.366 314.865 676.254 313.146 676.091C311.423 675.986 309.553 675.895 307.537 675.82C307.611 675.653 307.669 675.341 307.713 674.883L307.884 673.078C307.922 672.678 307.92 672.388 307.879 672.211C308.619 672.339 309.389 672.441 310.191 672.517C310.988 672.65 311.844 672.76 312.76 672.847L316.97 673.246C317.049 673.023 317.222 672.114 317.489 670.521C317.698 668.923 317.937 667.01 318.206 664.781C318.47 662.61 318.745 660.325 319.03 657.924C319.258 655.519 319.462 653.371 319.641 651.48C319.793 649.877 319.914 648.299 320.003 646.747C320.035 645.19 319.882 643.759 319.543 642.455C319.199 641.209 318.604 640.17 317.758 639.339C316.912 638.507 315.63 638.01 313.911 637.847C313.453 637.804 312.846 637.804 312.091 637.848C311.278 637.886 310.577 637.965 309.988 638.082L310.184 636.02C311.174 635.941 312.281 635.843 313.506 635.728C314.678 635.55 315.809 635.513 316.897 635.616C320.506 635.958 323.085 637.099 324.635 639.037C326.185 640.976 326.797 643.663 326.471 647.1C326.325 648.647 326.138 650.305 325.913 652.075C325.682 653.903 325.437 655.873 325.179 657.987C324.858 660.153 324.547 662.522 324.245 665.094C323.938 667.723 323.632 670.642 323.328 673.849L326.078 674.11C326.536 674.153 327.025 674.171 327.546 674.162C328.062 674.211 328.609 674.234 329.187 674.231C329.097 674.57 329.039 674.882 329.011 675.168C328.922 675.506 328.86 675.847 328.828 676.191C328.801 676.477 328.802 676.767 328.832 677.058C328.805 677.345 328.807 677.634 328.837 677.926C326.275 677.51 324.393 677.244 323.191 677.13C323.139 678.281 323.061 679.719 322.955 681.443C322.792 683.161 322.681 684.942 322.622 686.786L315.206 689.117L314.776 689.076Z" fill="#DFAD77" fill-opacity="0.1"/>
<path d="M233.145 648.451C230.674 656.238 228.797 662.252 227.512 666.492C226.227 670.733 225.443 673.683 225.157 675.343C224.589 675.042 224.048 674.749 223.534 674.466C223.003 674.237 222.463 674.036 221.915 673.862C221.202 673.635 220.336 673.512 219.317 673.49C220.09 671.623 220.985 669.372 222.002 666.737C223.002 664.156 224.044 661.348 225.128 658.312C226.194 655.33 227.295 652.239 228.431 649.038C229.55 645.892 230.615 642.82 231.627 639.821C232.847 636.164 234.467 633.056 236.486 630.497C238.45 627.921 240.741 625.932 243.359 624.529C245.977 623.126 248.905 622.365 252.142 622.245C255.324 622.107 258.78 622.63 262.509 623.813C270.735 626.423 276.122 630.183 278.668 635.096C281.214 640.008 281.209 646.495 278.651 654.557C277.834 657.134 277.057 659.393 276.321 661.332C275.513 663.309 274.778 665.34 274.117 667.424C272.656 672.03 271.414 676.134 270.393 679.733C269.372 683.333 268.525 686.384 267.852 688.886C267.228 688.568 266.55 688.232 265.817 687.879C265.067 687.58 264.363 687.327 263.705 687.118C263.101 686.927 262.517 686.771 261.951 686.652C261.313 686.571 260.675 686.489 260.037 686.407C260.529 685.236 261.143 683.68 261.879 681.74C262.598 679.856 263.403 677.697 264.296 675.264C265.189 672.831 266.115 670.197 267.074 667.363C268.034 664.528 269 661.575 269.975 658.504C270.566 656.64 271.156 654.684 271.745 652.638C272.317 650.646 272.742 648.638 273.022 646.614C273.285 644.645 273.338 642.67 273.181 640.689C272.953 638.745 272.362 636.898 271.408 635.147C270.437 633.451 269.032 631.888 267.191 630.459C265.334 629.085 262.869 627.911 259.798 626.937C256.782 625.98 254.12 625.618 251.812 625.852C249.45 626.069 247.384 626.681 245.616 627.689C243.847 628.698 242.311 630.021 241.006 631.66C239.647 633.281 238.481 635.054 237.508 636.978C236.536 638.903 235.7 640.871 235.002 642.883C234.303 644.895 233.684 646.751 233.145 648.451Z" fill="#DFAD77" fill-opacity="0.1"/>
<path d="M224.231 618.997C224.236 618.354 224.139 617.594 223.94 616.718C223.69 615.815 223.35 614.899 222.92 613.969C222.412 613.065 221.789 612.198 221.049 611.368C220.258 610.513 219.325 609.811 218.248 609.262C217.274 608.765 216.273 608.449 215.245 608.312C214.166 608.149 213.149 608.179 212.195 608.403C211.19 608.601 210.26 609.031 209.406 609.693C208.552 610.356 207.837 611.251 207.262 612.378C206.452 613.967 206.299 615.407 206.803 616.698C207.23 618.013 207.979 619.267 209.05 620.459C210.096 621.703 211.308 622.934 212.688 624.155C214.068 625.375 215.241 626.684 216.208 628.081C217.148 629.529 217.766 631.104 218.061 632.805C218.305 634.479 217.879 636.393 216.781 638.545C215.918 640.237 214.852 641.631 213.583 642.727C212.287 643.875 210.84 644.687 209.24 645.163C207.641 645.639 205.904 645.754 204.027 645.507C202.125 645.312 200.148 644.692 198.098 643.646C196.202 642.679 194.743 641.613 193.723 640.447C192.652 639.254 191.632 638.153 190.662 637.142C191.464 636.582 192.332 635.83 193.266 634.885C194.2 633.94 194.874 633.187 195.291 632.624L196.213 633.094C195.996 634.534 196.228 636.041 196.911 637.616C197.593 639.191 198.805 640.423 200.548 641.311C201.317 641.703 202.151 641.967 203.051 642.103C203.95 642.239 204.838 642.207 205.715 642.008C206.591 641.81 207.443 641.405 208.272 640.794C209.1 640.183 209.801 639.313 210.377 638.186C211.213 636.546 211.431 635.042 211.03 633.675C210.552 632.333 209.777 631.066 208.706 629.874C207.634 628.682 206.409 627.476 205.029 626.255C203.623 625.086 202.437 623.803 201.47 622.406C200.477 621.06 199.859 619.55 199.615 617.876C199.319 616.175 199.721 614.248 200.819 612.096C201.577 610.609 202.655 609.318 204.053 608.223C205.4 607.101 206.989 606.265 208.82 605.713C210.574 605.187 212.467 605.022 214.498 605.218C216.503 605.466 218.582 606.138 220.734 607.236C223.092 608.438 224.948 609.675 226.302 610.947C227.655 612.218 228.713 613.436 229.476 614.6C228.829 615.11 228.064 615.85 227.181 616.821C226.221 617.816 225.545 618.699 225.153 619.468L224.231 618.997Z" fill="#DFAD77" fill-opacity="0.1"/>
<path d="M145.403 560.453C146.096 560.425 147.069 560.552 148.324 560.834C149.499 561.125 150.855 561.602 152.394 562.265C153.851 562.936 155.447 563.757 157.18 564.728C158.913 565.698 160.604 566.857 162.252 568.204C165.772 571.08 168.623 574.228 170.807 577.648C172.955 581.111 174.283 584.76 174.791 588.593C175.255 592.39 174.909 596.269 173.753 600.228C172.517 604.196 170.351 608.074 167.257 611.86C164.162 615.647 160.812 618.519 157.206 620.477C153.519 622.442 149.747 623.558 145.889 623.823C141.987 624.052 138.062 623.445 134.114 622.002C130.167 620.559 126.344 618.327 122.646 615.305C119.706 612.902 117.288 610.406 115.392 607.816C113.415 605.234 111.836 602.756 110.657 600.38C111.523 600.048 112.504 599.438 113.601 598.551C114.697 597.664 115.604 596.918 116.32 596.315L116.83 596.509C116.839 597.407 116.971 598.519 117.227 599.842C117.483 601.166 117.89 602.576 118.45 604.074C119.009 605.571 119.793 607.067 120.802 608.56C121.775 610.097 123.063 611.522 124.667 612.832C127.295 614.98 130.091 616.56 133.055 617.57C135.974 618.544 139.009 618.832 142.158 618.433C145.226 618.043 148.339 616.871 151.495 614.918C154.615 613.009 157.686 610.206 160.708 606.509C163.73 602.811 165.883 599.221 167.168 595.739C168.417 592.301 168.946 589.018 168.754 585.889C168.481 582.768 167.576 579.874 166.04 577.207C164.46 574.504 162.356 572.078 159.727 569.93C158.123 568.619 156.489 567.618 154.825 566.927C153.116 566.199 151.487 565.648 149.936 565.272C148.304 564.905 146.788 564.669 145.388 564.564C143.906 564.468 142.653 564.41 141.629 564.391L141.58 563.905L145.403 560.453Z" fill="#DFAD77" fill-opacity="0.1"/>
<path d="M124.091 561.722C125.914 560.136 127.54 558.455 128.968 556.678C130.359 554.858 131.387 552.972 132.053 551.02C132.676 549.106 132.811 547.158 132.46 545.176C132.108 543.194 131.102 541.248 129.44 539.338C127.779 537.428 125.991 536.162 124.076 535.539C122.162 534.916 120.214 534.781 118.232 535.133C116.207 535.522 114.215 536.301 112.258 537.47C110.263 538.595 108.354 539.951 106.531 541.537C104.708 543.123 103.101 544.826 101.71 546.646C100.281 548.423 99.2559 550.268 98.6334 552.182C97.9675 554.134 97.8103 556.101 98.1618 558.083C98.5133 560.065 99.5199 562.011 101.181 563.921C102.843 565.831 104.631 567.097 106.545 567.72C108.459 568.342 110.429 568.459 112.454 568.07C114.436 567.718 116.425 566.98 118.42 565.854C120.377 564.685 122.267 563.308 124.091 561.722ZM129.075 567.452C126.123 570.02 123.231 571.735 120.398 572.598C117.483 573.456 114.736 573.673 112.155 573.249C109.532 572.862 107.126 571.981 104.937 570.605C102.668 569.224 100.722 567.6 99.0978 565.734C97.4363 563.824 96.0975 561.671 95.0814 559.276C94.0219 556.918 93.4824 554.414 93.463 551.762C93.4001 549.147 94.014 546.478 95.3046 543.754C96.514 541.024 98.5946 538.375 101.546 535.807C104.498 533.239 107.431 531.527 110.346 530.669C113.179 529.806 115.907 529.567 118.531 529.954C121.112 530.378 123.474 531.297 125.619 532.71C127.764 534.123 129.667 535.785 131.328 537.695C132.952 539.562 134.334 541.676 135.475 544.04C136.578 546.359 137.161 548.826 137.224 551.441C137.243 554.093 136.648 556.784 135.439 559.514C134.148 562.238 132.027 564.884 129.075 567.452Z" fill="#DFAD77" fill-opacity="0.1"/>
<path d="M78.1551 506.611C74.505 508.912 72.2002 511.352 71.2408 513.929C70.2327 516.537 70.5112 519.082 72.0762 521.565C74.2243 524.971 76.8511 526.818 79.9565 527.104C83.0312 527.342 86.4666 526.264 90.2627 523.871L96.4679 519.958C98.6579 518.577 100.954 517.095 103.357 515.512C105.68 513.911 107.739 512.375 109.532 510.904C110.14 512.085 110.782 513.211 111.457 514.281C112.132 515.352 112.872 516.416 113.675 517.474C111.575 518.459 109.317 519.678 106.901 521.133C104.407 522.57 102.064 523.979 99.8742 525.36L92.282 530.147C90.0919 531.528 87.8352 533.019 85.5119 534.62C83.1092 536.203 80.9382 537.776 78.9989 539.339C78.383 537.823 77.8142 536.651 77.2925 535.824C77.047 535.435 76.7618 535.036 76.437 534.629C76.0328 534.204 75.5825 533.705 75.0862 533.134C77.125 532.053 79.1178 530.898 81.0645 529.671L80.9724 529.525C78.0205 529.481 75.3864 528.864 73.0702 527.672C70.7054 526.51 68.6944 524.615 67.0373 521.987C66.178 520.624 65.5135 519.139 65.0435 517.531C64.543 515.874 64.4264 514.179 64.694 512.446C64.9129 510.743 65.6348 509.03 66.8599 507.305C68.0056 505.562 69.8439 503.893 72.3746 502.297C74.4673 500.978 76.6637 499.661 78.9638 498.347C81.2152 497.063 83.582 495.639 86.0641 494.074L90.8092 491.082C91.5879 490.591 92.3665 490.1 93.1452 489.609C93.8446 489.1 94.5196 488.606 95.1702 488.128C95.6866 489.162 96.2824 490.215 96.9575 491.286C97.602 492.308 98.2797 493.275 98.9908 494.187C96.3987 495.685 93.7336 497.23 90.9955 498.82C88.2267 500.362 85.4309 502.023 82.6082 503.803L78.1551 506.611Z" fill="#DFAD77" fill-opacity="0.1"/>
<path d="M39.8996 494.044C41.9471 493.259 43.9563 492.459 45.9271 491.646C47.8213 490.806 49.7537 489.98 51.7246 489.167C51.452 488.596 50.9441 487.531 50.2008 485.973C49.4055 484.44 48.5223 482.79 47.5513 481.022C47.7318 481 48.0298 480.889 48.4452 480.691L50.0809 479.911C50.4444 479.737 50.6916 479.587 50.8226 479.461C51.0928 480.161 51.4014 480.874 51.7482 481.601C52.0432 482.353 52.3889 483.144 52.7853 483.975L54.6065 487.792C54.839 487.745 55.707 487.426 57.2105 486.836C58.6892 486.194 60.4535 485.416 62.5034 484.502C64.5014 483.612 66.6032 482.673 68.8089 481.684C70.9898 480.644 72.937 479.714 74.6506 478.897C76.1045 478.203 77.5201 477.496 78.8974 476.775C80.2498 476.002 81.3981 475.135 82.3423 474.175C83.2345 473.239 83.8199 472.195 84.0985 471.042C84.3772 469.889 84.1448 468.533 83.4015 466.976C83.2032 466.56 82.8911 466.04 82.4652 465.414C82.0144 464.737 81.5873 464.176 81.1837 463.731L83.0531 462.839C83.6301 463.647 84.2826 464.547 85.0106 465.538C85.7658 466.453 86.3788 467.404 86.8496 468.39C88.4106 471.662 88.7579 474.46 87.8915 476.786C87.0251 479.112 85.0341 481.018 81.9185 482.505C80.5165 483.174 78.9982 483.867 77.3638 484.583C75.6773 485.324 73.8611 486.127 71.915 486.991C69.8923 487.829 67.7002 488.779 65.3387 489.843C62.9253 490.93 60.2647 492.168 57.3568 493.556L58.5461 496.048C58.7443 496.464 58.9809 496.892 59.2558 497.335C59.4788 497.802 59.7402 498.283 60.0399 498.778C59.7036 498.875 59.4056 498.985 59.1459 499.109C58.8096 499.205 58.4857 499.328 58.1741 499.477C57.9145 499.601 57.6672 499.751 57.4324 499.926C57.1727 500.05 56.9255 500.2 56.6906 500.376C55.7314 497.965 54.9917 496.214 54.4713 495.124C53.4576 495.671 52.1842 496.343 50.6512 497.138C49.0934 497.881 47.5085 498.701 45.8964 499.598L40.0854 494.434L39.8996 494.044Z" fill="#DFAD77" fill-opacity="0.1"/>
<path d="M53.8275 444.942C54.4766 445.751 55.1284 446.742 55.783 447.915C56.4185 449.033 57.0907 450.17 57.7996 451.324C58.4542 452.496 59.1902 453.641 60.0077 454.757C60.8061 455.818 61.7023 456.724 62.6962 457.473C63.6711 458.168 64.7518 458.643 65.9384 458.898C67.106 459.099 68.4501 458.933 69.9705 458.4C72.5227 457.506 74.1937 456.098 74.9835 454.176C75.7733 452.253 75.8545 450.396 75.227 448.604C74.5044 446.541 73.2781 444.867 71.5483 443.583C69.7995 442.245 68.0032 441.38 66.1595 440.989L53.8275 444.942ZM46.3743 470.138C43.6723 468.341 41.6342 466.525 40.26 464.69C38.8858 462.854 37.8183 460.851 37.0577 458.679C36.3731 456.724 36.0443 454.827 36.0711 452.989C36.0437 451.17 36.3733 449.5 37.06 447.979C37.6924 446.477 38.6547 445.135 39.947 443.951C41.185 442.786 42.6999 441.889 44.4919 441.262C47.5871 440.178 50.7013 439.148 53.8345 438.173C56.9135 437.217 60.1634 436.14 63.5844 434.942C64.2361 434.713 64.942 434.466 65.7022 434.2C66.3891 433.898 66.9932 433.534 67.5145 433.108C67.9814 432.701 68.3384 432.24 68.5854 431.727C68.8134 431.16 68.7847 430.469 68.4995 429.654C68.4044 429.383 68.3094 429.111 68.2143 428.84C68.0459 428.533 67.8327 428.272 67.5747 428.058L69.3667 427.43C69.8473 427.932 70.3308 428.617 70.8169 429.483C71.2841 430.294 71.7078 431.243 72.0882 432.329C72.6967 434.067 72.7281 435.55 72.1826 436.777C71.5827 438.023 70.6054 438.975 69.2506 439.633C71.89 440.903 74.0041 442.327 75.5927 443.904C77.1814 445.481 78.4607 447.655 79.4305 450.424C79.9059 451.781 80.1817 453.178 80.2579 454.615C80.3342 456.051 80.1186 457.437 79.611 458.773C79.0845 460.055 78.338 461.231 77.3716 462.301C76.3318 463.335 75.0245 464.129 73.4498 464.68C70.1917 465.821 67.3148 465.701 64.8193 464.319C62.3047 462.883 60.1213 460.478 58.2689 457.103C56.7534 454.342 55.5475 452.204 54.6512 450.689C53.6816 449.138 52.8736 448.05 52.2273 447.423C51.5619 446.741 50.9564 446.405 50.4106 446.413C49.8105 446.44 49.1032 446.596 48.2887 446.882C46.9312 447.357 45.685 447.976 44.5501 448.74C43.4153 449.503 42.5099 450.399 41.834 451.428C41.1581 452.457 40.7482 453.637 40.6046 454.968C40.4066 456.317 40.5928 457.806 41.1633 459.435C41.9239 461.607 43.1257 463.473 44.7687 465.031C46.3927 466.535 48.2351 467.444 50.296 467.759L50.6098 468.655L46.3743 470.138Z" fill="#DFAD77" fill-opacity="0.1"/>
<path d="M49.7437 428.358C46.0788 429.103 42.7953 429.124 39.8933 428.422C36.9913 427.72 34.4942 426.554 32.4018 424.924C30.2416 423.249 28.5034 421.195 27.1872 418.762C25.8146 416.34 24.8534 413.776 24.3036 411.069C23.6737 407.968 23.5072 405.125 23.8041 402.54C24.0331 399.911 24.5181 397.963 25.259 396.697C26.1849 396.92 27.1615 397.103 28.1888 397.247C29.1482 397.345 30.1582 397.404 31.2189 397.424L31.3564 398.1C30.7036 398.644 30.0794 399.328 29.4838 400.154C28.8319 400.991 28.2932 401.952 27.8677 403.036C27.3743 404.076 27.0448 405.199 26.8792 406.407C26.6572 407.626 26.6836 408.913 26.9585 410.266C27.4739 412.803 28.3998 414.905 29.7363 416.571C31.0049 418.192 32.5771 419.428 34.4527 420.28C36.3169 421.076 38.4339 421.526 40.8038 421.632C43.1058 421.693 45.5537 421.46 48.1473 420.933C53.9548 419.753 58.1008 417.619 60.5852 414.532C63.0132 411.455 63.7404 407.521 62.7669 402.728C62.5378 401.6 62.1621 400.473 61.6397 399.346C61.0608 398.231 60.4032 397.161 59.6667 396.136C58.8738 395.123 58.0135 394.212 57.0858 393.402C56.1466 392.536 55.1797 391.823 54.1851 391.261L54.3529 390.787C55.7634 390.794 57.1792 390.683 58.6002 390.453C60.297 391.869 61.8823 393.749 63.3563 396.091C64.8187 398.378 65.8248 400.874 66.3746 403.58C66.8671 406.005 67.027 408.526 66.8543 411.145C66.6138 413.718 65.8764 416.157 64.6422 418.463C63.3515 420.78 61.5072 422.828 59.1091 424.607C56.6996 426.329 53.5778 427.579 49.7437 428.358Z" fill="#DFAD77" fill-opacity="0.1"/>
<path d="M9.14755 379.102C11.3404 379.067 13.5019 379.007 15.6321 378.92C17.6995 378.782 19.7983 378.67 21.9285 378.584C21.8687 377.953 21.7574 376.779 21.5945 375.061C21.3743 373.348 21.1119 371.495 20.8073 369.501C20.9845 369.542 21.3023 369.541 21.7605 369.497L23.5648 369.326C23.9657 369.288 24.2494 369.232 24.4158 369.159C24.4291 369.909 24.4738 370.685 24.5498 371.487C24.5686 372.294 24.6214 373.156 24.7083 374.072L25.1074 378.282C25.3419 378.318 26.2665 378.317 27.8812 378.279C29.4904 378.184 31.4147 378.06 33.6539 377.905C35.8359 377.756 38.1325 377.596 40.5436 377.426C42.9493 377.197 45.0972 376.994 46.9874 376.815C48.5912 376.663 50.1636 376.485 51.7047 376.281C53.2404 376.019 54.6165 375.6 55.8332 375.022C56.9926 374.45 57.9012 373.67 58.5589 372.683C59.2166 371.696 59.464 370.344 59.3011 368.625C59.2577 368.167 59.1434 367.571 58.9582 366.837C58.7676 366.046 58.5593 365.373 58.3331 364.816L60.3952 364.621C60.6593 365.578 60.963 366.647 61.3061 367.828C61.7011 368.947 61.9502 370.05 62.0534 371.138C62.3955 374.747 61.7602 377.495 60.1475 379.381C58.5348 381.268 56.0101 382.374 52.5734 382.7C51.0269 382.847 49.3631 382.976 47.582 383.087C45.7437 383.203 43.7622 383.333 41.6375 383.477C39.45 383.569 37.0648 383.708 34.4819 383.895C31.8417 384.088 28.9178 384.336 25.7102 384.64L25.9708 387.389C26.0143 387.848 26.0891 388.332 26.1952 388.842C26.2441 389.357 26.3243 389.899 26.4359 390.466C26.0868 390.441 25.7691 390.443 25.4827 390.47C25.1336 390.445 24.7872 390.449 24.4435 390.482C24.1571 390.509 23.8735 390.565 23.5925 390.649C23.3061 390.676 23.0224 390.732 22.7415 390.816C22.6689 388.223 22.5757 386.324 22.4616 385.121C21.3215 385.287 19.895 385.48 18.182 385.701C16.4637 385.863 14.6935 386.089 12.8715 386.377L9.18828 379.531L9.14755 379.102Z" fill="#DFAD77" fill-opacity="0.1"/>
<path d="M33.8825 291.25C25.7713 290.272 19.5131 289.546 15.1079 289.073C10.7027 288.599 7.65805 288.377 5.97398 288.406C6.164 287.791 6.35058 287.205 6.53371 286.648C6.65972 286.083 6.75717 285.516 6.82606 284.944C6.91562 284.202 6.87615 283.328 6.70765 282.322C8.68622 282.735 11.0646 283.195 13.8429 283.704C16.5641 284.206 19.5171 284.707 22.7021 285.207C25.83 285.701 29.0721 286.208 32.4285 286.728C35.7278 287.242 38.9448 287.717 42.0795 288.153C45.8998 288.672 49.2547 289.685 52.1443 291.192C55.0409 292.643 57.4219 294.523 59.2874 296.835C61.1528 299.146 62.4457 301.881 63.1659 305.039C63.8929 308.14 64.0222 311.633 63.5538 315.517C62.5205 324.085 59.8275 330.077 55.4748 333.493C51.1221 336.909 44.7474 338.111 36.3506 337.098C33.6659 336.774 31.3022 336.431 29.2596 336.069C27.1668 335.643 25.0351 335.299 22.8645 335.037C18.0663 334.458 13.8039 334.002 10.0773 333.668C6.35063 333.335 3.19519 333.07 0.610962 332.875C0.807873 332.203 1.01167 331.474 1.22236 330.688C1.37593 329.895 1.49404 329.156 1.57671 328.471C1.65249 327.842 1.69626 327.239 1.70803 326.661C1.66956 326.019 1.6311 325.377 1.59263 324.735C2.83552 325.001 4.47825 325.315 6.52084 325.677C8.5063 326.032 10.7774 326.422 13.334 326.846C15.8907 327.27 18.6507 327.69 21.6142 328.106C24.5776 328.521 27.6587 328.922 30.8574 329.307C32.7996 329.542 34.8308 329.757 36.9512 329.955C39.0144 330.146 41.0663 330.191 43.1069 330.089C45.0904 329.981 47.0408 329.665 48.9582 329.143C50.8254 328.557 52.5306 327.633 54.0737 326.37C55.5597 325.1 56.8335 323.428 57.8949 321.354C58.8993 319.273 59.5944 316.633 59.9801 313.435C60.359 310.293 60.219 307.61 59.5599 305.387C58.9078 303.106 57.9218 301.19 56.6019 299.64C55.2821 298.09 53.6959 296.827 51.8434 295.85C49.9977 294.816 48.0388 294 45.9667 293.403C43.8945 292.805 41.8051 292.35 39.6985 292.038C37.592 291.726 35.6533 291.464 33.8825 291.25Z" fill="#DFAD77" fill-opacity="0.1"/>
<path d="M61.1061 277.141C61.7387 277.025 62.4665 276.786 63.2895 276.425C64.1285 276.008 64.9638 275.501 65.7954 274.903C66.5878 274.234 67.3211 273.457 67.9955 272.574C68.6859 271.636 69.1988 270.586 69.5342 269.426C69.8377 268.375 69.9594 267.333 69.8993 266.297C69.8551 265.206 69.6329 264.214 69.2325 263.32C68.8481 262.37 68.25 261.538 67.4381 260.825C66.6262 260.111 65.6123 259.578 64.3963 259.227C62.6828 258.732 61.2401 258.854 60.0682 259.593C58.857 260.262 57.7675 261.234 56.7994 262.512C55.7762 263.773 54.7959 265.197 53.8585 266.782C52.9212 268.368 51.858 269.768 50.6689 270.981C49.4245 272.179 47.9953 273.083 46.3812 273.695C44.7831 274.251 42.8233 274.194 40.5018 273.523C38.6778 272.996 37.1074 272.213 35.7908 271.174C34.4188 270.118 33.3478 268.851 32.5777 267.37C31.8077 265.89 31.3662 264.206 31.2533 262.316C31.0852 260.411 31.3206 258.353 31.9594 256.142C32.5504 254.097 33.3219 252.464 34.274 251.241C35.242 249.964 36.1307 248.754 36.9403 247.61C37.6416 248.292 38.5444 249.002 39.6486 249.74C40.7528 250.478 41.6206 250.999 42.2519 251.301L41.9644 252.296C40.5101 252.355 39.0741 252.868 37.6566 253.836C36.239 254.804 35.2587 256.227 34.7157 258.107C34.4761 258.936 34.3747 259.805 34.4115 260.714C34.4483 261.623 34.6472 262.489 35.0083 263.312C35.3693 264.135 35.9282 264.895 36.6848 265.593C37.4414 266.29 38.4277 266.815 39.6437 267.166C41.4124 267.678 42.93 267.607 44.1965 266.955C45.4236 266.231 46.5212 265.231 47.4892 263.954C48.4572 262.676 49.4099 261.245 50.3472 259.659C51.2293 258.057 52.2649 256.65 53.454 255.436C54.5878 254.207 55.9538 253.314 57.5519 252.758C59.1659 252.146 61.1337 252.176 63.4552 252.846C65.0581 253.31 66.5296 254.124 67.8696 255.29C69.2256 256.4 70.3476 257.803 71.2356 259.497C72.0842 261.119 72.6043 262.946 72.7958 264.978C72.932 266.994 72.6647 269.162 71.9938 271.484C71.2591 274.026 70.3954 276.083 69.4028 277.652C68.4102 279.222 67.4146 280.491 66.4159 281.461C65.7932 280.921 64.9217 280.31 63.8015 279.627C62.642 278.873 61.6477 278.376 60.8186 278.136L61.1061 277.141Z" fill="#DFAD77" fill-opacity="0.1"/>
<path d="M103.773 188.755C103.93 189.43 103.987 190.41 103.942 191.696C103.875 192.904 103.659 194.325 103.294 195.961C102.905 197.518 102.396 199.238 101.765 201.122C101.133 203.005 100.309 204.882 99.2924 206.752C97.1212 210.745 94.5588 214.133 91.6054 216.915C88.6014 219.669 85.2635 221.653 81.5916 222.865C77.9473 224.027 74.0723 224.409 69.9667 224.01C65.838 223.533 61.6255 222.127 57.3291 219.791C53.0327 217.454 49.5875 214.697 46.9935 211.518C44.3765 208.262 42.5788 204.763 41.6004 201.022C40.6495 197.23 40.5157 193.261 41.199 189.113C41.8823 184.966 43.3646 180.795 45.6457 176.599C47.4597 173.263 49.4626 170.423 51.6544 168.078C53.8231 165.656 55.9648 163.644 58.0795 162.043C58.5673 162.832 59.349 163.683 60.4247 164.595C61.5004 165.508 62.4014 166.26 63.1277 166.851L63.0319 167.388C62.1505 167.564 61.0834 167.901 59.8305 168.398C58.5776 168.896 57.2675 169.559 55.9002 170.387C54.533 171.215 53.2096 172.264 51.9302 173.533C50.6002 174.775 49.4405 176.305 48.451 178.125C46.8295 181.107 45.798 184.148 45.3567 187.248C44.9429 190.298 45.2247 193.333 46.2021 196.353C47.1565 199.295 48.8868 202.135 51.3929 204.873C53.8485 207.583 57.174 210.079 61.3693 212.36C65.5646 214.642 69.4925 216.09 73.153 216.705C76.7629 217.292 80.0872 217.201 83.126 216.43C86.1417 215.581 88.8168 214.154 91.1514 212.149C93.5135 210.093 95.5053 207.574 97.1268 204.592C98.1163 202.772 98.7958 200.981 99.1654 199.217C99.5625 197.403 99.8013 195.699 99.8819 194.105C99.9394 192.434 99.8891 190.9 99.7312 189.505C99.5502 188.031 99.374 186.789 99.2028 185.779L99.671 185.641L103.773 188.755Z" fill="#DFAD77" fill-opacity="0.1"/>
<path d="M97.4808 169.431C99.381 170.924 101.338 172.205 103.351 173.275C105.4 174.299 107.445 174.955 109.488 175.243C111.485 175.495 113.424 175.262 115.304 174.544C117.185 173.827 118.907 172.473 120.471 170.482C122.035 168.492 122.943 166.498 123.195 164.501C123.447 162.504 123.214 160.565 122.497 158.684C121.734 156.768 120.595 154.958 119.079 153.255C117.599 151.507 115.909 149.887 114.009 148.394C112.109 146.901 110.134 145.642 108.085 144.618C106.072 143.548 104.067 142.888 102.07 142.636C100.028 142.348 98.0661 142.563 96.1854 143.281C94.3047 143.998 92.5824 145.352 91.0184 147.343C89.4545 149.333 88.5465 151.327 88.2946 153.324C88.0426 155.322 88.298 157.278 89.0607 159.194C89.7782 161.075 90.8769 162.89 92.357 164.638C93.8727 166.341 95.5806 167.939 97.4808 169.431ZM92.7889 175.403C89.7125 172.986 87.4842 170.468 86.1043 167.847C84.7146 165.145 83.9858 162.488 83.9178 159.873C83.8046 157.223 84.2181 154.695 85.1584 152.287C86.0889 149.799 87.3184 147.582 88.8468 145.637C90.4108 143.646 92.2736 141.927 94.4354 140.479C96.552 138.996 98.9109 137.995 101.512 137.478C104.068 136.926 106.805 137.027 109.723 137.783C112.632 138.458 115.624 140.005 118.701 142.422C121.777 144.839 124.01 147.398 125.4 150.099C126.78 152.72 127.527 155.355 127.64 158.005C127.708 160.619 127.249 163.112 126.263 165.484C125.278 167.856 124.003 170.038 122.439 172.028C120.911 173.974 119.093 175.729 116.986 177.293C114.915 178.812 112.601 179.847 110.045 180.4C107.444 180.917 104.689 180.838 101.781 180.163C98.8627 179.407 95.8654 177.82 92.7889 175.403Z" fill="#DFAD77" fill-opacity="0.1"/>
<path d="M144.37 112.531C141.439 109.364 138.618 107.545 135.909 107.074C133.16 106.561 130.709 107.301 128.556 109.294C125.6 112.03 124.266 114.951 124.553 118.056C124.883 121.122 126.572 124.302 129.62 127.595L134.603 132.979C136.362 134.879 138.24 136.865 140.236 138.937C142.235 140.928 144.122 142.67 145.897 144.163C144.848 144.978 143.858 145.815 142.93 146.675C142.001 147.535 141.09 148.456 140.197 149.44C138.845 147.555 137.232 145.559 135.359 143.451C133.489 141.262 131.675 139.217 129.916 137.317L123.819 130.73C122.061 128.83 120.182 126.885 118.182 124.894C116.186 122.822 114.242 120.976 112.35 119.356C113.728 118.473 114.775 117.699 115.493 117.034C115.831 116.722 116.17 116.368 116.511 115.974C116.855 115.499 117.263 114.965 117.733 114.373C119.17 116.179 120.67 117.926 122.233 119.615L122.36 119.498C121.862 116.588 121.986 113.885 122.734 111.39C123.443 108.852 124.937 106.528 127.217 104.418C128.399 103.324 129.738 102.398 131.233 101.642C132.77 100.846 134.415 100.421 136.168 100.366C137.881 100.27 139.698 100.666 141.618 101.554C143.541 102.361 145.519 103.862 147.551 106.058C149.232 107.874 150.929 109.792 152.642 111.812C154.317 113.79 156.15 115.856 158.144 118.009L161.954 122.126C162.58 122.802 163.205 123.477 163.83 124.153C164.459 124.747 165.068 125.32 165.657 125.872C164.735 126.569 163.809 127.348 162.88 128.208C161.993 129.029 161.167 129.872 160.4 130.738C158.453 128.464 156.446 126.127 154.381 123.727C152.358 121.287 150.213 118.843 147.946 116.394L144.37 112.531Z" fill="#DFAD77" fill-opacity="0.1"/>
<path d="M149.634 72.5005C150.785 74.3672 151.942 76.1937 153.106 77.98C154.282 79.686 155.452 81.4321 156.616 83.2184C157.126 82.8448 158.079 82.1486 159.472 81.1298C160.831 80.0646 162.29 78.8912 163.847 77.6097C163.903 77.783 164.066 78.0554 164.338 78.4269L165.408 79.8899C165.645 80.215 165.838 80.4302 165.987 80.5356C165.349 80.9306 164.705 81.3659 164.055 81.8413C163.371 82.2703 162.657 82.7565 161.914 83.2999L158.5 85.796C158.59 86.0157 159.064 86.8097 159.922 88.1781C160.826 89.5124 161.917 91.1023 163.195 92.9475C164.439 94.7463 165.751 96.638 167.131 98.6226C168.558 100.573 169.831 102.315 170.952 103.847C171.903 105.148 172.86 106.408 173.823 107.628C174.833 108.814 175.897 109.782 177.016 110.532C178.101 111.236 179.235 111.618 180.42 111.678C181.604 111.739 182.893 111.259 184.287 110.241C184.658 109.969 185.112 109.566 185.648 109.031C186.23 108.463 186.702 107.94 187.065 107.461L188.288 109.133C187.6 109.849 186.836 110.657 185.997 111.556C185.238 112.467 184.417 113.246 183.535 113.891C180.609 116.03 177.923 116.89 175.477 116.469C173.031 116.048 170.789 114.444 168.751 111.658C167.834 110.404 166.873 109.04 165.866 107.566C164.826 106.046 163.701 104.41 162.491 102.657C161.293 100.825 159.953 98.8462 158.472 96.7223C156.956 94.552 155.247 92.1664 153.345 89.5656L151.116 91.1957C150.744 91.4674 150.367 91.7793 149.983 92.1314C149.565 92.437 149.14 92.7829 148.71 93.1689C148.553 92.8563 148.389 92.5839 148.219 92.3516C148.062 92.039 147.881 91.7434 147.678 91.4647C147.508 91.2325 147.315 91.0173 147.099 90.819C146.929 90.5868 146.736 90.3716 146.519 90.1733C148.711 88.7844 150.295 87.7334 151.27 87.0202C150.545 86.1253 149.649 84.9982 148.584 83.6389C147.565 82.2456 146.466 80.8398 145.286 79.4215L149.285 72.7552L149.634 72.5005Z" fill="#DFAD77" fill-opacity="0.1"/>
<path d="M200.063 77.2237C199.389 78.0124 198.537 78.8377 197.507 79.6996C196.526 80.5327 195.536 81.4052 194.534 82.3169C193.504 83.1789 192.517 84.1155 191.574 85.1269C190.68 86.1094 189.958 87.1588 189.407 88.275C188.906 89.3625 188.641 90.5129 188.612 91.7262C188.633 92.9108 189.046 94.2002 189.853 95.5946C191.208 97.9352 192.903 99.3141 194.939 99.7312C196.975 100.148 198.815 99.8815 200.458 98.9306C202.351 97.8357 203.766 96.3187 204.705 94.3796C205.693 92.4117 206.207 90.4857 206.247 88.6014L200.063 77.2237ZM173.918 74.6033C175.18 71.6135 176.583 69.2722 178.13 67.5797C179.677 65.8871 181.446 64.4645 183.438 63.3119C185.231 62.2746 187.033 61.5976 188.843 61.2809C190.626 60.9145 192.328 60.9267 193.95 61.3175C195.543 61.6586 197.042 62.3534 198.446 63.402C199.822 64.4008 200.985 65.7219 201.936 67.3653C203.579 70.2039 205.171 73.0712 206.714 75.9674C208.228 78.8138 209.893 81.8057 211.708 84.943C212.054 85.5406 212.429 86.188 212.832 86.8852C213.256 87.5038 213.727 88.0293 214.243 88.4619C214.73 88.8446 215.249 89.1094 215.799 89.2563C216.399 89.3744 217.073 89.2173 217.82 88.7851C218.069 88.641 218.318 88.4969 218.567 88.3528C218.837 88.1302 219.053 87.8721 219.216 87.5786L220.167 89.222C219.763 89.7879 219.181 90.3905 218.421 91.0298C217.71 91.6402 216.857 92.2336 215.861 92.8099C214.268 93.732 212.817 94.0396 211.509 93.7326C210.173 93.3759 209.056 92.5934 208.157 91.385C207.401 94.2152 206.397 96.5578 205.144 98.4129C203.891 100.268 201.995 101.93 199.455 103.4C198.21 104.12 196.889 104.652 195.492 104.995C194.095 105.338 192.693 105.385 191.286 105.135C189.928 104.857 188.634 104.343 187.402 103.594C186.192 102.765 185.169 101.629 184.333 100.185C182.604 97.1967 182.186 94.348 183.077 91.6384C184.019 88.9001 185.974 86.3061 188.944 83.8565C191.374 81.8523 193.249 80.2686 194.571 79.1053C195.913 77.8635 196.831 76.8665 197.327 76.1145C197.872 75.3337 198.09 74.676 197.98 74.1413C197.841 73.5569 197.556 72.8912 197.123 72.1442C196.403 70.8992 195.562 69.7905 194.601 68.818C193.639 67.8455 192.59 67.1233 191.452 66.6513C190.315 66.1793 189.079 65.9968 187.746 66.104C186.383 66.1613 184.954 66.6222 183.46 67.4866C181.468 68.6392 179.86 70.168 178.636 72.0729C177.462 73.949 176.912 75.9288 176.988 78.0122L176.166 78.4877L173.918 74.6033Z" fill="#DFAD77" fill-opacity="0.1"/>
<path d="M214.858 70.35C213.44 66.8896 212.804 63.6683 212.949 60.6862C213.095 57.704 213.772 55.0325 214.981 52.6717C216.221 50.2358 217.913 48.1434 220.056 46.3943C222.178 44.592 224.516 43.1672 227.071 42.1198C229.999 40.9197 232.761 40.2232 235.355 40.0302C237.982 39.7622 239.986 39.8734 241.368 40.3638C241.323 41.3151 241.326 42.3088 241.378 43.3447C241.46 44.3056 241.592 45.3088 241.772 46.3544L241.133 46.6162C240.476 46.0769 239.687 45.5921 238.765 45.1618C237.82 44.6784 236.776 44.3293 235.63 44.1146C234.517 43.8249 233.351 43.7119 232.134 43.7757C230.895 43.7862 229.636 44.0533 228.358 44.577C225.963 45.5589 224.072 46.8624 222.686 48.4875C221.332 50.0375 220.412 51.8136 219.927 53.8157C219.495 55.796 219.449 57.9599 219.789 60.3076C220.161 62.5802 220.849 64.941 221.853 67.3899C224.1 72.8733 226.973 76.5457 230.472 78.4071C233.949 80.2154 237.951 80.1921 242.476 78.3374C243.54 77.901 244.577 77.3206 245.586 76.5962C246.573 75.8185 247.501 74.9719 248.369 74.0564C249.216 73.0876 249.95 72.0717 250.571 71.0087C251.246 69.9238 251.765 68.8403 252.13 67.7581L252.628 67.834C252.885 69.2208 253.26 70.5906 253.752 71.9433C252.679 73.8756 251.13 75.7852 249.105 77.6721C247.134 79.5373 244.87 80.9935 242.315 82.0409C240.026 82.9792 237.579 83.6089 234.975 83.9302C232.402 84.1764 229.867 83.9094 227.371 83.1292C224.853 82.2958 222.496 80.8681 220.299 78.846C218.156 76.8021 216.342 73.9701 214.858 70.35Z" fill="#DFAD77" fill-opacity="0.1"/>
<path d="M255.629 21.1565C256.07 23.3048 256.531 25.4175 257.012 27.4946C257.531 29.5004 258.031 31.5418 258.512 33.6189C259.12 33.4432 260.253 33.1158 261.911 32.6366C263.553 32.1022 265.326 31.5002 267.228 30.8306C267.221 31.0124 267.281 31.3244 267.409 31.7666L267.912 33.5077C268.024 33.8946 268.132 34.163 268.235 34.3128C267.5 34.4652 266.746 34.6532 265.972 34.8768C265.182 35.0451 264.345 35.2571 263.461 35.5126L259.398 36.6866C259.407 36.9236 259.58 37.832 259.916 39.4116C260.308 40.9752 260.788 42.8428 261.356 45.0145C261.907 47.1309 262.491 49.3578 263.106 51.6952C263.777 54.0167 264.376 56.0895 264.903 57.9135C265.351 59.4612 265.817 60.9732 266.304 62.4496C266.846 63.9101 267.513 65.1844 268.307 66.2726C269.085 67.3056 270.019 68.0536 271.111 68.5166C272.203 68.9796 273.579 68.9715 275.237 68.4924C275.679 68.3646 276.243 68.1416 276.93 67.8234C277.672 67.4893 278.295 67.1594 278.8 66.8339L279.375 68.8237C278.483 69.2611 277.489 69.758 276.392 70.3145C275.367 70.9103 274.329 71.36 273.278 71.6634C269.796 72.6697 266.978 72.5556 264.825 71.3213C262.672 70.087 261.116 67.8116 260.158 64.4952C259.726 63.0028 259.291 61.3919 258.851 59.6625C258.395 57.8777 257.899 55.9548 257.364 53.8937C256.867 51.7614 256.287 49.4436 255.624 46.9403C254.944 44.3817 254.157 41.5548 253.263 38.4595L250.61 39.2261C250.168 39.3539 249.706 39.5173 249.224 39.7163C248.727 39.8601 248.21 40.0395 247.673 40.2545C247.632 39.9068 247.572 39.5949 247.492 39.3185C247.452 38.9709 247.384 38.6312 247.288 38.2996C247.208 38.0232 247.1 37.7549 246.965 37.4945C246.885 37.2181 246.778 36.9497 246.643 36.6893C249.178 36.1364 251.026 35.6922 252.187 35.3568C251.812 34.2673 251.357 32.9014 250.823 31.2592C250.344 29.601 249.793 27.9035 249.172 26.1667L255.215 21.2763L255.629 21.1565Z" fill="#DFAD77" fill-opacity="0.1"/>
<path d="M347.274 28.8961C346.74 20.7436 346.299 14.4588 345.952 10.0419C345.605 5.62491 345.262 2.59148 344.924 0.941579C345.563 1.01503 346.173 1.09036 346.755 1.16758C347.332 1.18738 347.908 1.17847 348.483 1.14086C349.229 1.09197 350.081 0.892018 351.038 0.541016C350.997 2.56172 350.983 4.98431 350.995 7.80878C351.003 10.5758 351.055 13.5707 351.151 16.7932C351.243 19.9584 351.343 23.2384 351.45 26.6333C351.553 29.9707 351.68 33.2201 351.829 36.3815C352.024 40.2319 351.647 43.7161 350.698 46.8341C349.806 49.9484 348.397 52.6354 346.469 54.895C344.541 57.1547 342.092 58.9296 339.12 60.2198C336.206 61.5062 332.797 62.2773 328.893 62.533C320.282 63.0972 313.896 61.5551 309.736 57.9069C305.576 54.2586 303.22 48.2147 302.667 39.7752C302.49 37.0768 302.392 34.6905 302.371 32.6161C302.404 30.4806 302.349 28.322 302.206 26.1403C301.89 21.3177 301.553 17.0443 301.193 13.3201C300.834 9.5958 300.512 6.44566 300.228 3.86965C300.925 3.93934 301.679 4.00527 302.49 4.06743C303.297 4.07219 304.046 4.052 304.735 4.00687C305.366 3.9655 305.967 3.8973 306.538 3.80227C307.162 3.64608 307.786 3.48988 308.41 3.33368C308.377 4.60427 308.372 6.27674 308.392 8.35109C308.409 10.368 308.445 12.672 308.499 15.2631C308.554 17.8541 308.65 20.6443 308.788 23.6335C308.926 26.6226 309.101 29.7248 309.311 32.9398C309.439 34.8918 309.601 36.9281 309.798 39.0486C309.991 41.1116 310.325 43.1366 310.801 45.1234C311.274 47.0529 311.943 48.9117 312.81 50.7C313.73 52.4271 314.953 53.9326 316.479 55.2165C318.001 56.4429 319.879 57.3866 322.113 58.0474C324.344 58.6509 327.066 58.8473 330.281 58.6366C333.439 58.4298 336.05 57.7975 338.114 56.7397C340.235 55.6782 341.936 54.3559 343.216 52.773C344.496 51.19 345.446 49.398 346.064 47.3971C346.74 45.3925 347.181 43.3167 347.386 41.1699C347.591 39.0231 347.653 36.8857 347.571 34.7577C347.49 32.6297 347.39 30.6758 347.274 28.8961Z" fill="#DFAD77" fill-opacity="0.1"/>
<path d="M365.753 52.9038C365.985 53.5037 366.355 54.1745 366.862 54.9162C367.427 55.6632 368.081 56.3898 368.823 57.0959C369.628 57.7501 370.527 58.3266 371.52 58.8253C372.57 59.3294 373.697 59.6385 374.899 59.7525C375.988 59.8557 377.035 59.7816 378.041 59.5303C379.105 59.2844 380.039 58.8817 380.843 58.3222C381.705 57.7682 382.411 57.026 382.961 56.0957C383.512 55.1654 383.847 54.0702 383.966 52.8101C384.135 51.0345 383.747 49.6396 382.803 48.6254C381.921 47.5593 380.763 46.6693 379.328 45.9554C377.899 45.1841 376.318 44.4852 374.586 43.8586C372.854 43.2321 371.281 42.4472 369.868 41.5042C368.46 40.5038 367.306 39.2674 366.405 37.795C365.562 36.328 365.254 34.3916 365.482 31.986C365.661 30.0958 366.139 28.4073 366.916 26.9205C367.698 25.3765 368.745 24.0887 370.056 23.0572C371.368 22.0256 372.941 21.279 374.776 20.8173C376.617 20.2983 378.683 20.1474 380.974 20.3646C383.094 20.5656 384.842 21.0203 386.22 21.7288C387.655 22.4428 389.009 23.0914 390.283 23.6745C389.743 24.4902 389.213 25.5091 388.693 26.7312C388.172 27.9533 387.822 28.9026 387.643 29.5791L386.612 29.4814C386.284 28.0632 385.513 26.7476 384.298 25.5344C383.084 24.3212 381.503 23.6223 379.556 23.4377C378.697 23.3562 377.824 23.418 376.938 23.6229C376.051 23.8278 375.237 24.1841 374.496 24.6917C373.754 25.1993 373.111 25.8896 372.566 26.7627C372.021 27.6357 371.688 28.7022 371.569 29.9623C371.395 31.7952 371.746 33.2734 372.622 34.3967C373.561 35.4682 374.748 36.3609 376.182 37.0749C377.617 37.7888 379.201 38.4591 380.933 39.0857C382.671 39.655 384.246 40.4111 385.659 41.3542C387.078 42.24 388.209 43.4164 389.052 44.8834C389.953 46.3559 390.289 48.2949 390.061 50.7006C389.904 52.3617 389.377 53.9588 388.48 55.492C387.641 57.0306 386.471 58.3934 384.972 59.5805C383.535 60.7157 381.836 61.566 379.875 62.1315C377.92 62.6396 375.739 62.7796 373.334 62.5515C370.699 62.3017 368.518 61.8349 366.791 61.1511C365.065 60.4672 363.632 59.7246 362.495 58.9232C362.909 58.2112 363.348 57.2414 363.811 56.0139C364.337 54.7345 364.64 53.6652 364.722 52.806L365.753 52.9038Z" fill="#DFAD77" fill-opacity="0.1"/>
<path d="M461.607 78.4897C460.973 78.7696 460.02 79.0074 458.749 79.2031C457.549 79.3617 456.113 79.4137 454.438 79.3592C452.836 79.2674 451.051 79.0867 449.083 78.8169C447.115 78.5472 445.117 78.0867 443.091 77.4355C438.763 76.0451 434.958 74.1578 431.675 71.7735C428.41 69.3345 425.84 66.4239 423.966 63.0417C422.146 59.6772 421.05 55.9409 420.678 51.8328C420.378 47.6875 420.976 43.2869 422.472 38.6308C423.968 33.9748 426.036 30.0767 428.677 26.9366C431.39 23.7594 434.493 21.3421 437.987 19.6847C441.535 18.045 445.41 17.175 449.612 17.0747C453.814 16.9744 458.189 17.6547 462.735 19.1155C466.35 20.2771 469.514 21.7165 472.225 23.4338C475.009 25.1139 477.385 26.8439 479.351 28.6239C478.666 29.2499 477.976 30.1763 477.279 31.4029C476.583 32.6296 476.012 33.6547 475.566 34.4784L475.02 34.4843C474.684 33.651 474.154 32.6651 473.432 31.5266C472.71 30.3882 471.815 29.2243 470.747 28.035C469.679 26.8458 468.402 25.7406 466.917 24.7197C465.45 23.6439 463.73 22.7892 461.758 22.1556C458.527 21.1172 455.347 20.6696 452.219 20.8128C449.145 20.9736 446.216 21.8151 443.43 23.3374C440.717 24.8225 438.249 27.0509 436.025 30.0227C433.819 32.9398 431.985 36.6715 430.524 41.218C429.063 45.7645 428.371 49.8933 428.448 53.6042C428.542 57.2605 429.251 60.5097 430.574 63.352C431.969 66.1571 433.869 68.52 436.273 70.4408C438.732 72.3791 441.578 73.8675 444.81 74.9059C446.782 75.5395 448.669 75.8738 450.47 75.9088C452.327 75.9614 454.045 75.879 455.626 75.6617C457.279 75.4072 458.776 75.0725 460.118 74.6576C461.533 74.2056 462.72 73.8015 463.681 73.4453L463.904 73.8796L461.607 78.4897Z" fill="#DFAD77" fill-opacity="0.1"/>
<path d="M479.095 68.4879C477.981 70.6323 477.085 72.7929 476.408 74.9698C475.782 77.1732 475.517 79.305 475.614 81.3652C475.737 83.3743 476.326 85.2362 477.381 86.9509C478.435 88.6657 480.085 90.1066 482.332 91.2736C484.578 92.4407 486.706 92.9626 488.715 92.8393C490.724 92.716 492.586 92.1272 494.301 91.073C496.042 89.9676 497.609 88.5122 499 86.7067C500.443 84.9277 501.722 82.966 502.836 80.8216C503.95 78.6773 504.82 76.5034 505.446 74.3C506.123 72.1231 506.4 70.0301 506.276 68.021C506.18 65.9608 505.604 64.0734 504.55 62.3586C503.496 60.6439 501.845 59.203 499.599 58.0359C497.352 56.8689 495.225 56.347 493.215 56.4703C491.206 56.5936 489.331 57.2079 487.59 58.3132C485.875 59.3675 484.296 60.7841 482.853 62.5631C481.462 64.3686 480.209 66.3436 479.095 68.4879ZM472.355 64.9868C474.159 61.5149 476.22 58.8577 478.539 57.0151C480.935 55.1479 483.412 53.9381 485.968 53.3858C488.55 52.7825 491.112 52.7192 493.652 53.196C496.27 53.6483 498.677 54.4447 500.872 55.5852C503.118 56.7523 505.154 58.2635 506.978 60.1188C508.828 61.9231 510.249 64.0552 511.241 66.5153C512.258 68.9242 512.667 71.6326 512.466 74.6403C512.342 77.6235 511.379 80.851 509.575 84.3228C507.772 87.7946 505.672 90.4641 503.275 92.3313C500.956 94.174 498.506 95.397 495.923 96.0003C493.367 96.5526 490.832 96.5648 488.318 96.037C485.804 95.5091 483.424 94.6616 481.178 93.4946C478.982 92.354 476.921 90.8939 474.992 89.1142C473.115 87.361 471.668 85.2799 470.65 82.8709C469.659 80.4109 469.225 77.6893 469.348 74.7061C469.549 71.6984 470.552 68.4586 472.355 64.9868Z" fill="#DFAD77" fill-opacity="0.1"/>
<path d="M541.142 101.983C543.689 98.5001 544.934 95.3837 544.878 92.634C544.856 89.8379 543.66 87.5738 541.291 85.8418C538.04 83.4646 534.918 82.7141 531.926 83.5905C528.979 84.5008 526.181 86.7673 523.532 90.3898L519.202 96.3113C517.674 98.4013 516.084 100.624 514.433 102.98C512.862 105.324 511.513 107.51 510.387 109.537C509.386 108.663 508.375 107.853 507.354 107.105C506.332 106.358 505.253 105.641 504.117 104.952C505.708 103.265 507.358 101.3 509.069 99.058C510.86 96.8037 512.519 94.6316 514.047 92.5417L519.345 85.2966C520.873 83.2066 522.423 80.9898 523.994 78.6462C525.646 76.2901 527.086 74.0286 528.314 71.8618C529.444 73.0449 530.404 73.9251 531.194 74.5024C531.565 74.7741 531.977 75.0395 532.429 75.2987C532.962 75.5455 533.564 75.8431 534.235 76.1917C532.737 77.9476 531.309 79.7543 529.951 81.6121L530.09 81.714C532.851 80.6678 535.528 80.2728 538.12 80.5291C540.746 80.7389 543.313 81.7608 545.821 83.5946C547.122 84.5455 548.286 85.6822 549.315 87.0046C550.39 88.361 551.122 89.8942 551.511 91.6042C551.934 93.2677 551.893 95.1267 551.389 97.1812C550.965 99.2232 549.87 101.452 548.104 103.867C546.644 105.864 545.086 107.897 543.431 109.965C541.81 111.987 540.133 114.182 538.401 116.551L535.09 121.079C534.547 121.822 534.003 122.565 533.46 123.308C532.997 124.039 532.551 124.746 532.122 125.431C531.261 124.659 530.32 123.899 529.298 123.152C528.323 122.439 527.337 121.789 526.34 121.203C528.199 118.855 530.109 116.439 532.069 113.952C534.076 111.5 536.065 108.927 538.035 106.233L541.142 101.983Z" fill="#DFAD77" fill-opacity="0.1"/>
<path d="M581.547 99.4164C579.935 100.904 578.364 102.389 576.833 103.873C575.384 105.354 573.894 106.837 572.364 108.321C572.828 108.751 573.694 109.552 574.96 110.724C576.266 111.855 577.697 113.062 579.253 114.345C579.094 114.433 578.857 114.645 578.545 114.983L577.314 116.313C577.04 116.609 576.866 116.839 576.791 117.005C576.281 116.455 575.73 115.906 575.139 115.359C574.587 114.77 573.974 114.162 573.298 113.537L570.195 110.664C569.996 110.794 569.307 111.411 568.129 112.515C566.992 113.658 565.641 115.034 564.074 116.641C562.547 118.207 560.941 119.856 559.257 121.591C557.616 123.364 556.15 124.947 554.86 126.341C553.766 127.523 552.712 128.704 551.699 129.883C550.729 131.101 549.982 132.331 549.46 133.572C548.977 134.772 548.819 135.959 548.987 137.133C549.154 138.307 549.871 139.48 551.138 140.653C551.476 140.966 551.958 141.334 552.585 141.757C553.255 142.22 553.859 142.583 554.399 142.848L552.992 144.368C552.157 143.83 551.218 143.235 550.174 142.583C549.135 142.013 548.214 141.356 547.411 140.614C544.751 138.151 543.394 135.679 543.339 133.198C543.284 130.717 544.428 128.209 546.773 125.676C547.829 124.536 548.983 123.331 550.237 122.061C551.53 120.749 552.921 119.331 554.409 117.808C555.978 116.282 557.664 114.588 559.465 112.727C561.305 110.824 563.319 108.69 565.508 106.326L563.481 104.45C563.143 104.137 562.765 103.826 562.346 103.517C561.966 103.165 561.545 102.815 561.084 102.466C561.361 102.252 561.597 102.039 561.792 101.828C562.069 101.614 562.324 101.38 562.559 101.127C562.754 100.916 562.929 100.685 563.082 100.435C563.277 100.224 563.452 99.993 563.605 99.7428C565.388 101.628 566.722 102.981 567.609 103.802C568.348 102.918 569.283 101.824 570.414 100.518C571.586 99.2514 572.755 97.9034 573.922 96.4741L581.23 99.1233L581.547 99.4164Z" fill="#DFAD77" fill-opacity="0.1"/>
<path d="M588.716 152.101C587.816 151.586 586.846 150.903 585.807 150.052C584.806 149.244 583.764 148.433 582.681 147.619C581.642 146.768 580.538 145.973 579.369 145.234C578.237 144.539 577.071 144.026 575.872 143.693C574.71 143.403 573.53 143.358 572.333 143.555C571.173 143.796 569.983 144.443 568.764 145.496C566.717 147.263 565.678 149.186 565.648 151.264C565.618 153.342 566.223 155.1 567.464 156.537C568.892 158.192 570.646 159.3 572.727 159.861C574.844 160.465 576.832 160.611 578.691 160.298L588.716 152.101ZM586.416 125.927C589.588 126.608 592.15 127.551 594.102 128.755C596.053 129.959 597.78 131.432 599.284 133.174C600.638 134.742 601.639 136.386 602.287 138.106C602.98 139.789 603.285 141.463 603.204 143.13C603.166 144.759 602.762 146.361 601.994 147.936C601.269 149.474 600.188 150.863 598.751 152.103C596.268 154.246 593.748 156.346 591.19 158.402C588.676 160.42 586.047 162.613 583.303 164.982C582.781 165.433 582.215 165.921 581.605 166.448C581.076 166.98 580.648 167.54 580.319 168.128C580.034 168.678 579.87 169.237 579.829 169.805C579.824 170.417 580.104 171.049 580.668 171.702C580.856 171.92 581.044 172.138 581.232 172.356C581.501 172.579 581.795 172.744 582.114 172.849L580.677 174.089C580.045 173.798 579.345 173.339 578.575 172.711C577.843 172.127 577.101 171.4 576.349 170.529C575.146 169.135 574.573 167.767 574.631 166.425C574.732 165.046 575.293 163.802 576.312 162.694C573.391 162.479 570.902 161.929 568.846 161.044C566.79 160.159 564.803 158.606 562.886 156.384C561.946 155.296 561.177 154.097 560.58 152.788C559.982 151.48 559.675 150.111 559.657 148.682C559.677 147.297 559.941 145.929 560.448 144.579C561.036 143.236 561.962 142.019 563.225 140.928C565.838 138.673 568.559 137.73 571.387 138.101C574.253 138.516 577.166 139.953 580.126 142.414C582.549 144.428 584.454 145.975 585.843 147.056C587.314 148.143 588.465 148.86 589.296 149.206C590.165 149.596 590.851 149.688 591.356 149.48C591.904 149.235 592.505 148.83 593.158 148.266C594.247 147.326 595.18 146.293 595.956 145.167C596.732 144.041 597.246 142.876 597.498 141.67C597.749 140.465 597.698 139.217 597.344 137.927C597.034 136.598 596.315 135.281 595.187 133.974C593.683 132.232 591.881 130.937 589.781 130.09C587.719 129.286 585.672 129.115 583.639 129.578L583.019 128.859L586.416 125.927Z" fill="#DFAD77" fill-opacity="0.1"/>
<path d="M598.02 164.955C601.153 162.912 604.197 161.683 607.154 161.266C610.11 160.849 612.861 161.013 615.407 161.757C618.032 162.518 620.405 163.787 622.526 165.564C624.694 167.309 626.533 169.338 628.041 171.652C629.77 174.302 630.972 176.884 631.649 179.396C632.405 181.925 632.672 183.915 632.45 185.365C631.507 185.499 630.531 185.688 629.523 185.933C628.595 186.195 627.635 186.513 626.641 186.886L626.264 186.307C626.671 185.561 626.999 184.695 627.248 183.708C627.546 182.69 627.693 181.598 627.688 180.433C627.764 179.285 627.656 178.119 627.365 176.935C627.122 175.72 626.623 174.534 625.869 173.377C624.455 171.208 622.82 169.596 620.963 168.54C619.187 167.5 617.269 166.93 615.212 166.83C613.186 166.777 611.052 167.138 608.81 167.913C606.647 168.705 604.458 169.824 602.241 171.27C597.277 174.507 594.209 178.018 593.037 181.804C591.914 185.559 592.688 189.484 595.359 193.581C595.988 194.545 596.752 195.454 597.653 196.309C598.602 197.133 599.608 197.885 600.67 198.566C601.781 199.216 602.916 199.746 604.077 200.157C605.269 200.616 606.431 200.923 607.563 201.078L607.581 201.581C606.268 202.094 604.993 202.719 603.756 203.457C601.657 202.765 599.49 201.602 597.257 199.968C595.055 198.381 593.2 196.431 591.691 194.118C590.34 192.046 589.262 189.761 588.458 187.263C587.733 184.782 587.519 182.243 587.817 179.645C588.163 177.015 589.123 174.432 590.696 171.894C592.302 169.405 594.743 167.092 598.02 164.955Z" fill="#DFAD77" fill-opacity="0.1"/>
<path d="M654.675 196.976C652.646 197.808 650.656 198.653 648.704 199.51C646.829 200.393 644.916 201.262 642.964 202.12C643.249 202.685 643.781 203.737 644.559 205.278C645.389 206.793 646.309 208.423 647.32 210.168C647.14 210.195 646.844 210.312 646.434 210.519L644.816 211.336C644.457 211.518 644.213 211.673 644.085 211.803C643.799 211.109 643.474 210.403 643.111 209.684C642.799 208.939 642.436 208.156 642.02 207.334L640.114 203.56C639.882 203.612 639.022 203.95 637.532 204.574C636.068 205.249 634.322 206.067 632.293 207.027C630.316 207.962 628.236 208.948 626.053 209.986C623.896 211.076 621.97 212.049 620.276 212.905C618.838 213.632 617.438 214.371 616.078 215.123C614.743 215.926 613.615 216.818 612.692 217.8C611.822 218.756 611.26 219.813 611.007 220.972C610.755 222.131 611.018 223.48 611.796 225.021C612.004 225.432 612.328 225.945 612.768 226.561C613.233 227.228 613.673 227.779 614.087 228.215L612.238 229.149C611.643 228.354 610.97 227.469 610.22 226.494C609.444 225.597 608.81 224.66 608.317 223.685C606.683 220.449 606.272 217.659 607.086 215.314C607.899 212.97 609.847 211.019 612.928 209.462C614.314 208.762 615.817 208.035 617.435 207.282C619.104 206.503 620.901 205.659 622.828 204.751C624.831 203.868 627.001 202.868 629.338 201.752C631.726 200.61 634.358 199.312 637.234 197.859L635.988 195.394C635.781 194.984 635.535 194.56 635.25 194.124C635.016 193.662 634.744 193.187 634.433 192.699C634.767 192.595 635.063 192.478 635.32 192.348C635.654 192.244 635.975 192.114 636.283 191.958C636.54 191.828 636.783 191.673 637.014 191.492C637.271 191.362 637.515 191.207 637.746 191.026C638.759 193.414 639.538 195.148 640.083 196.226C641.084 195.656 642.342 194.956 643.857 194.127C645.397 193.348 646.963 192.493 648.555 191.56L654.481 196.591L654.675 196.976Z" fill="#DFAD77" fill-opacity="0.1"/>
<path d="M663.865 287.961C671.777 285.925 677.872 284.328 682.148 283.168C686.424 282.009 689.341 281.11 690.9 280.471C690.946 281.113 690.985 281.726 691.017 282.312C691.105 282.884 691.22 283.448 691.363 284.005C691.55 284.73 691.904 285.53 692.426 286.405C690.433 286.74 688.05 287.175 685.277 287.71C682.559 288.231 679.626 288.837 676.477 289.528C673.383 290.205 670.179 290.911 666.862 291.645C663.602 292.365 660.432 293.092 657.353 293.825C653.606 294.729 650.112 295.004 646.872 294.65C643.647 294.351 640.745 293.464 638.167 291.988C635.589 290.513 633.391 288.434 631.573 285.754C629.769 283.128 628.379 279.921 627.404 276.132C625.254 267.774 625.586 261.213 628.4 256.45C631.214 251.686 636.717 248.25 644.908 246.143C647.527 245.469 649.853 244.93 651.888 244.525C653.993 244.162 656.104 243.708 658.221 243.163C662.902 241.959 667.038 240.835 670.632 239.792C674.225 238.749 677.261 237.849 679.74 237.093C679.8 237.79 679.875 238.543 679.964 239.352C680.109 240.146 680.268 240.878 680.44 241.546C680.597 242.159 680.776 242.737 680.975 243.28C681.244 243.864 681.513 244.448 681.782 245.033C680.528 245.237 678.883 245.541 676.849 245.946C674.87 246.336 672.612 246.798 670.076 247.331C667.54 247.865 664.816 248.477 661.904 249.167C658.992 249.856 655.976 250.603 652.856 251.405C650.962 251.893 648.991 252.43 646.943 253.016C644.952 253.587 643.024 254.291 641.16 255.127C639.351 255.949 637.649 256.952 636.052 258.135C634.525 259.359 633.272 260.84 632.294 262.577C631.37 264.3 630.791 266.32 630.556 268.638C630.376 270.942 630.688 273.654 631.491 276.774C632.279 279.839 633.384 282.287 634.806 284.12C636.242 286.008 637.857 287.434 639.65 288.399C641.443 289.363 643.379 289.964 645.46 290.201C647.555 290.494 649.677 290.542 651.824 290.346C653.972 290.15 656.084 289.814 658.16 289.34C660.236 288.865 662.138 288.405 663.865 287.961Z" fill="#DFAD77" fill-opacity="0.1"/>
<path d="M643.724 310.881C643.177 311.22 642.586 311.707 641.95 312.343C641.32 313.036 640.726 313.812 640.169 314.672C639.675 315.583 639.274 316.573 638.967 317.641C638.665 318.766 638.569 319.931 638.678 321.134C638.778 322.223 639.044 323.238 639.476 324.181C639.914 325.181 640.482 326.025 641.18 326.712C641.883 327.457 642.743 328.014 643.759 328.384C644.775 328.753 645.913 328.881 647.173 328.766C648.95 328.604 650.249 327.965 651.072 326.851C651.957 325.788 652.618 324.485 653.056 322.943C653.55 321.396 653.946 319.714 654.242 317.896C654.539 316.078 655.02 314.387 655.686 312.824C656.41 311.256 657.413 309.894 658.694 308.737C659.98 307.638 661.827 306.978 664.233 306.759C666.124 306.587 667.871 306.745 669.476 307.235C671.138 307.719 672.596 308.51 673.852 309.609C675.108 310.708 676.131 312.116 676.924 313.835C677.773 315.549 678.302 317.552 678.511 319.843C678.704 321.963 678.58 323.766 678.137 325.25C677.7 326.792 677.312 328.243 676.974 329.603C676.073 329.223 674.974 328.89 673.677 328.603C672.379 328.317 671.382 328.148 670.684 328.096L670.59 327.065C671.923 326.481 673.074 325.481 674.043 324.064C675.011 322.647 675.407 320.964 675.229 319.016C675.151 318.156 674.929 317.31 674.565 316.477C674.2 315.643 673.7 314.909 673.064 314.274C672.428 313.638 671.631 313.133 670.673 312.758C669.714 312.384 668.605 312.254 667.344 312.368C665.511 312.536 664.122 313.153 663.18 314.221C662.3 315.341 661.641 316.672 661.204 318.214C660.767 319.756 660.4 321.436 660.103 323.254C659.864 325.067 659.411 326.755 658.745 328.318C658.136 329.875 657.188 331.204 655.902 332.303C654.621 333.46 652.777 334.148 650.37 334.367C648.709 334.519 647.042 334.295 645.37 333.696C643.703 333.155 642.148 332.257 640.704 331.002C639.324 329.799 638.175 328.286 637.258 326.463C636.398 324.635 635.858 322.517 635.639 320.111C635.399 317.475 635.455 315.246 635.809 313.423C636.163 311.599 636.629 310.055 637.207 308.789C637.983 309.065 639.017 309.317 640.309 309.546C641.663 309.827 642.77 309.928 643.63 309.85L643.724 310.881Z" fill="#DFAD77" fill-opacity="0.1"/>
</svg>
